# Blender v2.82 (sub 7) OBJ File: ''
# www.blender.org
mtllib default.mtl
usemtl default
v -0.412240 0.099012 -0.172892
v -0.438836 0.125608 -0.172892
v -0.412240 0.125608 -0.172892
v -0.438836 0.099012 -0.172892
v -0.412240 0.125608 0.048742
v -0.412240 0.125608 -0.106402
v -0.438836 0.099012 -0.106402
v -0.438836 0.125608 0.048742
v -0.412240 0.099012 -0.106402
v -0.438836 -0.184680 0.048742
v 0.412240 0.125608 0.137396
v 0.412240 0.099012 -0.106402
v -0.438836 0.083169 -0.077526
v -0.412240 0.099012 0.048742
v -0.438836 0.083169 0.031967
v -0.412240 0.125608 0.137396
v 0.412240 0.125608 -0.106402
v -0.438836 -0.158084 -0.106402
v -0.438836 -0.158084 -0.077526
v -0.438836 0.083169 -0.064311
v -0.412240 -0.184680 0.048742
v -0.412240 0.099012 0.137396
v -0.438836 0.083169 0.018752
v -0.438836 -0.158084 0.031967
v 0.412240 0.125608 0.048742
v 0.412240 0.125608 -0.172892
v 0.438836 -0.158084 -0.106402
v -0.412240 0.083169 -0.077526
v -0.438836 0.083169 -0.053457
v -0.412240 -0.184680 -0.172892
v -0.412240 -0.158084 0.031967
v -0.397645 0.099012 -0.075373
v -0.438836 0.083169 0.007898
v -0.412240 0.083169 0.018752
v -0.438836 -0.158084 0.018752
v 0.412240 0.099012 0.137396
v 0.412240 0.099012 0.048742
v 0.438836 0.125608 0.048742
v 0.412240 0.099012 -0.172892
v 0.438836 0.099012 -0.106402
v 0.412240 -0.158084 -0.106402
v -0.412240 -0.158084 -0.077526
v -0.412240 0.083169 -0.064311
v -0.438836 -0.158084 -0.053457
v -0.438836 0.083169 -0.040241
v -0.438836 -0.184680 -0.172892
v -0.412240 -0.184680 -0.106402
v -0.412240 -0.158084 0.018752
v -0.412240 0.083169 0.031967
v -0.412240 0.099012 -0.084239
v -0.397645 0.099012 -0.039912
v -0.438836 0.083169 -0.005318
v -0.438836 -0.158084 0.007898
v 0.438836 0.099012 -0.172892
v 0.438836 0.125608 -0.172892
v 0.438836 0.083169 -0.077526
v 0.412240 -0.158084 -0.172892
v -0.412240 -0.158084 -0.106402
v -0.438836 -0.158084 -0.172892
v -0.438836 -0.158084 -0.064311
v -0.412240 -0.158084 -0.064311
v -0.412240 -0.184680 -0.084239
v -0.412240 0.083169 -0.053457
v -0.438836 0.083169 -0.029387
v -0.412240 -0.158084 0.007898
v 0.412240 0.099012 -0.084239
v -0.008954 0.099012 -0.075373
v -0.438836 0.083169 -0.016172
v -0.412240 0.083169 -0.005318
v -0.438836 -0.158084 -0.005318
v -0.008954 0.099012 -0.039912
v 0.438836 -0.184680 0.048742
v 0.438836 -0.158084 -0.077526
v 0.438836 -0.158084 -0.172892
v 0.412240 -0.184680 -0.106402
v -0.412240 -0.158084 -0.053457
v -0.412240 0.083169 -0.040241
v -0.438836 -0.158084 -0.029387
v -0.412240 -0.158084 -0.172892
v -0.412240 -0.158084 -0.005318
v -0.412240 0.083169 0.007898
v 0.397643 0.090146 -0.084239
v -0.438836 -0.158084 -0.016172
v 0.008954 0.099012 -0.039912
v 0.397643 0.099012 -0.039912
v 0.412240 0.083169 -0.077526
v 0.412240 -0.184680 0.048742
v 0.438836 -0.158084 0.031967
v 0.438836 0.083169 -0.064311
v 0.412240 -0.158084 -0.077526
v 0.438836 -0.184680 -0.172892
v 0.412240 -0.184680 -0.172892
v -0.438836 -0.158084 -0.040241
v -0.397645 0.090146 -0.084239
v -0.412240 -0.158084 -0.040241
v -0.412240 0.083169 -0.029387
v -0.397645 -0.184680 -0.084239
v -0.412240 -0.158084 -0.016172
v 0.412240 -0.184680 -0.084239
v 0.008954 0.099012 -0.075373
v 0.397643 0.099012 -0.075373
v 0.412240 0.083169 -0.064311
v 0.412240 0.083169 0.031967
v 0.438836 -0.158084 0.018752
v 0.438836 0.083169 0.031967
v 0.438836 0.083169 -0.053457
v 0.438836 -0.158084 -0.064311
v -0.412240 -0.158084 -0.029387
v -0.412240 0.083169 -0.016172
v -0.008954 -0.184680 -0.084239
v 0.397643 -0.184680 -0.084239
v -0.008954 0.090146 -0.084239
v 0.412240 0.083169 -0.053457
v 0.412240 0.083169 0.018752
v 0.412240 -0.158084 0.031967
v 0.438836 -0.158084 0.007898
v 0.412240 -0.158084 0.018752
v 0.438836 0.083169 0.018752
v 0.438836 0.083169 -0.040241
v 0.438836 -0.158084 -0.053457
v 0.412240 -0.158084 -0.064311
v 0.008954 -0.184680 -0.084239
v 0.008954 0.090146 -0.084239
v 0.412240 -0.158084 -0.053457
v 0.412240 0.083169 -0.040241
v 0.412240 0.083169 0.007898
v 0.438836 -0.158084 -0.005318
v 0.438836 0.083169 0.007898
v 0.438836 0.083169 -0.029387
v 0.438836 -0.158084 -0.040241
v 0.412240 0.083169 -0.029387
v 0.412240 0.083169 -0.005318
v 0.412240 -0.158084 0.007898
v 0.438836 -0.158084 -0.016172
v 0.412240 -0.158084 -0.005318
v 0.438836 0.083169 -0.005318
v 0.438836 0.083169 -0.016172
v 0.438836 -0.158084 -0.029387
v 0.412240 -0.158084 -0.029387
v 0.412240 0.083169 -0.016172
v 0.412240 -0.158084 -0.040241
v 0.412240 -0.158084 -0.016172
vt 0.616576 0.456300
vt 0.632134 0.442316
vt 0.632134 0.456300
vt 0.616576 0.442316
vt 0.984276 0.893940
vt 0.999844 0.777431
vt 0.999844 0.893940
vt 0.283777 0.827748
vt 0.268209 0.792788
vt 0.283777 0.792788
vt 0.891234 0.801754
vt 0.875665 0.836709
vt 0.875665 0.801754
vt 0.508457 0.822485
vt 0.469536 0.836469
vt 0.469536 0.822485
vt 0.984276 0.777431
vt 0.000000 0.000000
vt 0.000000 0.000000
vt 0.000000 0.000000
vt 0.268209 0.827748
vt 0.891234 0.836709
vt 0.599271 0.836469
vt 0.649458 0.836390
vt 0.633890 0.673321
vt 0.649458 0.673321
vt 0.376018 0.437842
vt 0.324135 0.004335
vt 0.466812 0.437843
vt 0.153585 0.880018
vt 0.169144 0.446512
vt 0.169144 0.880018
vt 0.000000 0.000000
vt 0.000000 0.000000
vt 0.000000 0.000000
vt 0.525359 0.814155
vt 0.633890 0.687298
vt 0.589451 0.814155
vt 0.599271 0.673322
vt 0.324135 0.437842
vt 0.466812 0.004337
vt 0.153585 0.446512
vt 0.321204 0.004615
vt 0.321204 0.452105
vt 0.170803 0.004615
vt 0.525359 0.687306
vt 0.533095 0.814155
vt 0.633890 0.836390
vt 0.213681 0.839518
vt 0.198113 0.792905
vt 0.213681 0.792905
vt 0.581716 0.814155
vt 0.589451 0.687306
vt 0.198113 0.839518
vt 0.983957 0.219585
vt 0.968397 0.653091
vt 0.968397 0.219585
vt 0.000000 0.000000
vt 0.000000 0.000000
vt 0.000000 0.000000
vt 0.242651 0.792788
vt 0.258219 0.827748
vt 0.242651 0.827748
vt 0.170803 0.466089
vt 0.508457 0.687306
vt 0.958616 0.128056
vt 0.943048 0.001268
vt 0.958616 0.001268
vt 0.671658 0.456300
vt 0.663924 0.442316
vt 0.671658 0.442316
vt 0.539448 0.814155
vt 0.999837 0.475030
vt 0.984269 0.591549
vt 0.984269 0.475030
vt 0.467461 0.744980
vt 0.457641 0.730996
vt 0.467461 0.595817
vt 0.653734 0.004335
vt 0.726376 0.012009
vt 0.601847 0.004335
vt 0.575362 0.814155
vt 0.655880 0.456300
vt 0.648145 0.442316
vt 0.655880 0.442316
vt 0.581716 0.687306
vt 0.404565 0.874512
vt 0.388997 0.747739
vt 0.404565 0.747739
vt 0.983957 0.653091
vt 0.182234 0.792905
vt 0.197802 0.839518
vt 0.182234 0.839518
vt 0.999844 0.693544
vt 0.999844 0.775100
vt 0.984276 0.775100
vt 0.258219 0.792788
vt 0.999844 0.658591
vt 0.321204 0.466089
vt 0.000000 0.000000
vt 0.000000 0.000000
vt 0.000000 0.000000
vt 0.943048 0.128056
vt 0.663924 0.456300
vt 0.539448 0.687306
vt 0.547184 0.814155
vt 0.999837 0.591549
vt 0.000000 0.000000
vt 0.000000 0.000000
vt 0.000000 0.000000
vt 0.449906 0.730996
vt 0.457641 0.604147
vt 0.731565 0.004335
vt 0.705621 0.012009
vt 0.567626 0.814155
vt 0.648145 0.456300
vt 0.347295 0.814009
vt 0.331727 0.687221
vt 0.347295 0.687221
vt 0.575362 0.687306
vt 0.679701 0.442316
vt 0.687435 0.456300
vt 0.679701 0.456300
vt 0.388997 0.874512
vt 0.601847 0.437841
vt 0.197802 0.792905
vt 0.148053 0.673432
vt 0.132485 0.659455
vt 0.148053 0.659455
vt 0.354292 0.442318
vt 0.338733 0.456302
vt 0.338733 0.442318
vt 0.859786 0.836709
vt 0.875354 0.801754
vt 0.875354 0.836709
vt 0.984276 0.658591
vt 0.859786 0.801754
vt 0.040217 0.673440
vt 0.057120 0.681770
vt 0.040218 0.808619
vt 0.938872 0.801753
vt 0.923304 0.836706
vt 0.923304 0.801754
vt 0.000000 0.000000
vt 0.469536 0.687306
vt 0.533095 0.687306
vt 0.358487 0.641729
vt 0.350753 0.627745
vt 0.358487 0.627745
vt 0.393549 0.730996
vt 0.389620 0.744980
vt 0.393549 0.604147
vt 0.401285 0.604147
vt 0.999837 0.472598
vt 0.984269 0.345825
vt 0.999837 0.345825
vt 0.938872 0.800136
vt 0.923304 0.673348
vt 0.938872 0.673348
vt 0.358487 0.527619
vt 0.350751 0.513635
vt 0.358487 0.513635
vt 0.553538 0.814155
vt 0.469536 0.673322
vt 0.600706 0.456300
vt 0.616264 0.442316
vt 0.616264 0.456300
vt 0.226772 0.792788
vt 0.242340 0.827748
vt 0.226772 0.827748
vt 0.000000 0.000000
vt 0.443552 0.730996
vt 0.687435 0.442316
vt 0.449906 0.604147
vt 0.731565 0.437841
vt 0.389620 0.595817
vt 0.726376 0.216380
vt 0.561273 0.814155
vt 0.350751 0.499371
vt 0.358487 0.513355
vt 0.350751 0.513355
vt 0.331727 0.814009
vt 0.567626 0.687306
vt 0.705621 0.216380
vt 0.000000 0.000000
vt 0.000000 0.000000
vt 0.000000 0.000000
vt 0.132485 0.822523
vt 0.354292 0.456302
vt 0.131031 0.659456
vt 0.001297 0.673440
vt 0.001297 0.659456
vt 0.057120 0.808619
vt 0.938872 0.836706
vt 0.891545 0.801754
vt 0.907113 0.836714
vt 0.891545 0.836714
vt 0.968085 0.435224
vt 0.952527 0.868731
vt 0.952527 0.435224
vt 0.922992 0.801753
vt 0.907424 0.836706
vt 0.907424 0.801754
vt 0.350753 0.641729
vt 0.401285 0.730996
vt 0.407638 0.604147
vt 0.984269 0.472598
vt 0.923304 0.800136
vt 0.350751 0.527619
vt 0.553538 0.687306
vt 0.600706 0.442316
vt 0.242340 0.792788
vt 0.968086 0.868731
vt 0.508451 0.018459
vt 0.521423 0.451965
vt 0.508451 0.451965
vt 0.435816 0.730996
vt 0.443552 0.604147
vt 0.162452 0.012010
vt 0.167639 0.004335
vt 0.167639 0.437842
vt 0.358487 0.499371
vt 0.922992 0.800136
vt 0.907424 0.673348
vt 0.922992 0.673348
vt 0.984269 0.216517
vt 0.999837 0.343290
vt 0.984269 0.343290
vt 0.561273 0.687306
vt 0.350752 0.542162
vt 0.358487 0.556147
vt 0.350752 0.556146
vt 0.705621 0.225796
vt 0.705621 0.430166
vt 0.389620 0.592833
vt 0.393549 0.584503
vt 0.467461 0.592833
vt 0.148053 0.822523
vt 0.131032 0.822603
vt 0.121212 0.808619
vt 0.064856 0.681770
vt 0.315848 0.687221
vt 0.331416 0.814009
vt 0.315848 0.814009
vt 0.001297 0.822603
vt 0.001297 0.808619
vt 0.322863 0.456302
vt 0.338422 0.442318
vt 0.338422 0.456302
vt 0.907113 0.801754
vt 0.922992 0.836706
vt 0.547184 0.687306
vt 0.407638 0.730996
vt 0.001660 0.437842
vt 0.162452 0.430168
vt 0.415374 0.604147
vt 0.358487 0.584674
vt 0.350752 0.570690
vt 0.358487 0.570690
vt 0.452203 0.874512
vt 0.436635 0.747739
vt 0.452203 0.747739
vt 0.315536 0.814009
vt 0.299968 0.687221
vt 0.315536 0.687221
vt 0.640256 0.442316
vt 0.647991 0.456300
vt 0.640256 0.456300
vt 0.521423 0.444291
vt 0.429463 0.730996
vt 0.358487 0.542163
vt 0.435816 0.604147
vt 0.001660 0.004335
vt 0.726376 0.225796
vt 0.999837 0.216517
vt 0.907424 0.800136
vt 0.726376 0.430166
vt 0.393549 0.457654
vt 0.401285 0.584503
vt 0.457641 0.584503
vt 0.467461 0.443670
vt 0.599253 0.018459
vt 0.469536 0.004475
vt 0.599253 0.004475
vt 0.113477 0.808619
vt 0.121212 0.681770
vt 0.071209 0.681770
vt 0.640101 0.456300
vt 0.632367 0.442316
vt 0.640101 0.442316
vt 0.064856 0.808619
vt 0.331416 0.687221
vt 0.358486 0.613202
vt 0.350752 0.599217
vt 0.358486 0.599217
vt 0.322863 0.442318
vt 0.469536 0.018459
vt 0.350752 0.584674
vt 0.415374 0.730996
vt 0.001660 0.430168
vt 0.421728 0.604147
vt 0.436635 0.874512
vt 0.299968 0.814009
vt 0.647991 0.442316
vt 0.521423 0.239920
vt 0.421728 0.730996
vt 0.429463 0.604147
vt 0.001660 0.012010
vt 0.389620 0.443670
vt 0.000000 0.000000
vt 0.000000 0.000000
vt 0.000000 0.000000
vt 0.974807 0.001268
vt 0.990375 0.128040
vt 0.974807 0.128040
vt 0.358487 0.655993
vt 0.350753 0.642009
vt 0.358487 0.642009
vt 0.632367 0.456300
vt 0.407638 0.584503
vt 0.449906 0.584503
vt 0.457641 0.457654
vt 0.521423 0.018459
vt 0.107123 0.808619
vt 0.358487 0.627465
vt 0.350753 0.613481
vt 0.358487 0.613481
vt 0.113477 0.681770
vt 0.974496 0.128040
vt 0.958928 0.001268
vt 0.974496 0.001268
vt 0.078945 0.681770
vt 0.968397 0.658694
vt 0.983965 0.785466
vt 0.968397 0.785466
vt 0.071209 0.808619
vt 0.350752 0.613201
vt 0.162452 0.225796
vt 0.350753 0.655993
vt 0.990375 0.001268
vt 0.521423 0.230504
vt 0.001660 0.225796
vt 0.001660 0.216380
vt 0.521423 0.026134
vt 0.000000 0.000000
vt 0.407638 0.457654
vt 0.415374 0.584503
vt 0.443553 0.584503
vt 0.350752 0.584954
vt 0.358487 0.598938
vt 0.350752 0.598938
vt 0.449906 0.457654
vt 0.958928 0.128040
vt 0.099387 0.808619
vt 0.350753 0.627465
vt 0.859786 0.673348
vt 0.875354 0.800136
vt 0.859786 0.800136
vt 0.107123 0.681770
vt 0.358487 0.584954
vt 0.085298 0.681770
vt 0.350751 0.470844
vt 0.358487 0.484828
vt 0.350751 0.484828
vt 0.983965 0.658694
vt 0.078945 0.808619
vt 0.401285 0.457654
vt 0.162452 0.216380
vt 0.299657 0.814009
vt 0.284089 0.687221
vt 0.299657 0.687221
vt 0.358487 0.470844
vt 0.421728 0.584503
vt 0.435816 0.584503
vt 0.875354 0.673348
vt 0.443552 0.457654
vt 0.093034 0.808619
vt 0.350752 0.556426
vt 0.358487 0.570410
vt 0.350752 0.570410
vt 0.099387 0.681770
vt 0.093034 0.681770
vt 0.404877 0.747739
vt 0.420445 0.874512
vt 0.404877 0.874512
vt 0.284089 0.814009
vt 0.358486 0.541883
vt 0.350751 0.527899
vt 0.358486 0.527899
vt 0.085299 0.808619
vt 0.421728 0.457654
vt 0.429463 0.584503
vt 0.350751 0.485108
vt 0.358487 0.499092
vt 0.350751 0.499092
vt 0.435816 0.457654
vt 0.358487 0.556426
vt 0.891545 0.673348
vt 0.907113 0.800136
vt 0.891545 0.800136
vt 0.436324 0.874512
vt 0.420756 0.747739
vt 0.436324 0.747739
vt 0.358487 0.485108
vt 0.663769 0.456300
vt 0.656034 0.442316
vt 0.663769 0.442316
vt 0.420445 0.747739
vt 0.350751 0.541883
vt 0.415374 0.457654
vt 0.891234 0.800136
vt 0.875665 0.673348
vt 0.891234 0.673348
vt 0.656034 0.456300
vt 0.907113 0.673348
vt 0.420756 0.874512
vt 0.429463 0.457654
vt 0.671813 0.442316
vt 0.679547 0.456300
vt 0.671813 0.456300
vt 0.468083 0.874512
vt 0.452515 0.747739
vt 0.468083 0.747739
vt 0.875665 0.800136
vt 0.679547 0.442316
vt 0.452515 0.874512
vn 0.0000 0.0000 -1.0000
vn 0.0000 1.0000 0.0000
vn 1.0000 0.0000 0.0000
vn 0.0000 -1.0000 0.0000
vn -1.0000 0.0000 0.0000
vn 0.0000 0.0000 1.0000
vn 1.0000 -0.0001 0.0000
vn 0.0000 -1.0000 -0.0001
vn 0.0000 -0.0395 0.9992
vn 0.0001 -0.0804 0.9968
vn -0.0000 -0.0804 0.9968
vn 0.0000 0.0000 0.0000
vn -0.0000 -0.0394 0.9992
f 1/1/1 2/2/1 3/3/1
f 2/2/1 1/1/1 4/4/1
f 2/5/2 5/6/2 3/7/2
f 6/8/3 1/9/3 3/10/3
f 1/11/4 7/12/4 4/13/4
f 7/14/5 2/15/5 4/16/5
f 5/6/2 2/5/2 8/17/2
f 3/18/2 5/19/2 6/20/2
f 1/9/3 6/8/3 9/21/3
f 7/12/4 1/11/4 9/22/4
f 2/15/5 7/14/5 8/23/5
f 10/24/6 5/25/6 8/26/6
f 5/27/2 11/28/2 6/29/2
f 6/30/1 12/31/1 9/32/1
f 9/33/1 12/34/1 7/35/1
f 8/23/5 7/14/5 13/36/5
f 5/25/6 10/24/6 14/37/6
f 8/23/5 15/38/5 10/39/5
f 11/28/2 5/27/2 16/40/2
f 6/29/2 11/28/2 17/41/2
f 12/31/1 6/30/1 17/42/1
f 7/43/1 12/44/1 18/45/1
f 13/36/5 7/14/5 19/46/5
f 8/23/5 13/36/5 20/47/5
f 14/37/6 10/24/6 21/48/6
f 22/49/5 5/50/5 14/51/5
f 8/23/5 23/52/5 15/38/5
f 24/53/5 10/39/5 15/38/5
f 5/50/5 22/49/5 16/54/5
f 22/55/6 11/56/6 16/57/6
f 17/58/2 11/59/2 25/60/2
f 26/61/5 12/62/5 17/63/5
f 18/45/1 12/44/1 27/64/1
f 18/65/5 19/46/5 7/14/5
f 19/66/6 28/67/6 13/68/6
f 28/69/4 20/70/4 13/71/4
f 8/23/5 20/47/5 29/72/5
f 10/73/4 30/74/4 21/75/4
f 21/76/3 31/77/3 14/78/3
f 14/79/4 32/80/4 22/81/4
f 8/23/5 33/82/5 23/52/5
f 34/83/4 15/84/4 23/85/4
f 35/86/5 10/39/5 24/53/5
f 15/87/1 31/88/1 24/89/1
f 11/56/6 22/55/6 36/90/6
f 11/91/3 37/92/3 25/93/3
f 17/94/2 25/95/2 38/96/2
f 12/62/5 26/61/5 39/97/5
f 17/94/2 38/96/2 26/98/2
f 27/64/1 12/44/1 40/99/1
f 18/100/1 27/101/1 41/102/1
f 18/65/5 10/39/5 19/46/5
f 28/67/6 19/66/6 42/103/6
f 20/70/4 28/69/4 43/104/4
f 29/72/5 20/47/5 44/105/5
f 8/23/5 29/72/5 45/106/5
f 30/74/4 10/73/4 46/107/4
f 21/108/4 30/109/4 47/110/4
f 21/76/3 48/111/3 31/77/3
f 49/112/3 14/78/3 31/77/3
f 50/113/4 32/80/4 14/79/4
f 51/114/4 22/81/4 32/80/4
f 8/23/5 52/115/5 33/82/5
f 23/52/5 33/82/5 35/86/5
f 15/84/4 34/83/4 49/116/4
f 35/117/6 34/118/6 23/119/6
f 53/120/5 10/39/5 35/86/5
f 31/121/2 35/122/2 24/123/2
f 31/88/1 15/87/1 49/124/1
f 22/81/4 51/114/4 36/125/4
f 37/92/3 11/91/3 36/126/3
f 37/127/6 38/128/6 25/129/6
f 26/130/1 54/131/1 39/132/1
f 54/133/4 12/134/4 39/135/4
f 26/98/2 38/96/2 55/136/2
f 12/134/4 54/133/4 40/137/4
f 40/138/3 56/139/3 27/140/3
f 27/141/2 57/142/2 41/143/2
f 18/100/1 41/102/1 58/144/1
f 59/145/5 10/39/5 18/65/5
f 19/46/5 10/39/5 60/146/5
f 19/147/2 61/148/2 42/149/2
f 42/150/3 62/151/3 28/152/3
f 28/152/3 14/78/3 43/153/3
f 61/154/1 20/155/1 43/156/1
f 60/146/5 44/105/5 20/47/5
f 44/157/6 63/158/6 29/159/6
f 63/160/4 45/161/4 29/162/4
f 8/23/5 45/106/5 64/163/5
f 10/39/5 59/145/5 46/164/5
f 59/165/1 30/166/1 46/167/1
f 30/168/3 58/169/3 47/170/3
f 21/108/4 47/110/4 62/171/4
f 21/76/3 65/172/3 48/111/3
f 35/122/2 31/121/2 48/173/2
f 34/174/3 14/78/3 49/112/3
f 32/80/4 50/113/4 66/175/4
f 28/152/3 50/176/3 14/78/3
f 67/177/4 51/114/4 32/80/4
f 8/23/5 68/178/5 52/115/5
f 69/179/4 33/180/4 52/181/4
f 53/120/5 35/86/5 33/82/5
f 34/118/6 35/117/6 48/182/6
f 70/183/5 10/39/5 53/120/5
f 36/125/4 51/114/4 71/184/4
f 36/185/4 66/186/4 37/187/5
f 38/128/6 37/127/6 72/188/6
f 54/131/1 26/130/1 55/189/1
f 38/190/3 54/191/3 55/192/3
f 54/191/3 38/190/3 40/138/3
f 40/138/3 38/190/3 56/139/3
f 73/193/3 27/140/3 56/139/3
f 57/142/2 27/141/2 74/194/2
f 57/195/5 75/196/5 41/197/5
f 75/198/1 58/199/1 41/200/1
f 58/201/2 59/202/2 18/203/2
f 60/146/5 10/39/5 44/105/5
f 61/148/2 19/147/2 60/204/2
f 21/76/3 42/150/3 61/205/3
f 62/151/3 42/150/3 21/76/3
f 50/176/3 28/152/3 62/151/3
f 43/153/3 14/78/3 63/206/7
f 20/155/1 61/154/1 60/207/1
f 43/153/3 63/206/7 61/205/3
f 63/158/6 44/157/6 76/208/6
f 45/161/4 63/160/4 77/209/4
f 64/163/5 45/106/5 78/210/5
f 8/23/5 64/163/5 68/178/5
f 30/166/1 59/165/1 79/211/1
f 58/169/3 30/168/3 79/212/3
f 58/199/1 75/198/1 47/213/1
f 75/214/4 62/215/4 47/216/4
f 21/76/3 80/217/3 65/172/3
f 48/111/3 65/172/3 34/174/3
f 81/218/3 14/78/3 34/174/3
f 82/219/6 66/220/6 50/221/6
f 32/80/4 66/175/4 67/177/4
f 51/114/4 67/177/4 71/184/4
f 52/115/5 68/178/5 70/183/5
f 33/180/4 69/179/4 81/222/4
f 70/223/6 69/224/6 52/225/6
f 33/226/1 65/227/1 53/228/1
f 83/229/5 10/39/5 70/183/5
f 65/230/2 70/231/2 53/232/2
f 36/125/4 71/184/4 84/233/4
f 36/125/4 85/234/4 66/175/4
f 66/235/5 86/236/5 37/237/5
f 72/188/6 37/127/6 87/238/6
f 72/239/3 88/240/3 38/190/3
f 56/139/3 38/190/3 89/241/3
f 72/239/3 27/140/3 73/193/3
f 56/242/6 90/243/6 73/244/6
f 27/140/3 91/245/3 74/246/3
f 91/247/1 57/248/1 74/249/1
f 75/196/5 57/195/5 92/250/5
f 59/202/2 58/201/2 79/251/2
f 44/105/5 10/39/5 93/252/5
f 21/76/3 61/205/3 76/253/3
f 62/254/6 94/255/6 50/221/6
f 63/206/7 14/78/3 77/256/3
f 76/253/3 61/205/3 63/206/7
f 44/257/2 95/258/2 76/259/2
f 95/260/1 45/261/1 77/262/1
f 93/252/5 78/210/5 45/106/5
f 78/263/6 96/264/6 64/265/6
f 96/266/4 68/267/4 64/268/4
f 62/215/4 75/214/4 97/269/8
f 21/76/3 98/270/3 80/217/3
f 70/231/2 65/230/2 80/271/2
f 81/218/3 34/174/3 65/172/3
f 69/272/3 14/78/3 81/218/3
f 66/220/6 82/219/6 99/273/6
f 82/219/6 50/221/6 94/255/6
f 67/177/4 66/175/4 100/274/4
f 67/177/4 100/274/4 71/184/4
f 83/229/5 70/183/5 68/178/5
f 65/227/1 33/226/1 81/275/1
f 69/224/6 70/223/6 80/276/6
f 78/210/5 10/39/5 83/229/5
f 84/233/4 71/184/4 100/274/4
f 36/125/4 84/233/4 85/234/4
f 101/277/4 66/175/4 85/234/4
f 86/236/5 66/235/5 90/278/5
f 37/237/5 86/236/5 102/279/5
f 37/237/5 103/280/5 87/281/5
f 87/282/4 91/283/4 72/284/4
f 72/239/3 104/285/3 88/240/3
f 105/286/3 38/190/3 88/240/3
f 89/241/3 38/190/3 106/287/3
f 102/288/4 56/289/4 89/290/4
f 91/245/3 27/140/3 72/239/3
f 72/239/3 73/193/3 107/291/3
f 90/243/6 56/242/6 86/292/6
f 90/293/2 107/294/2 73/295/2
f 57/248/1 91/247/1 92/296/1
f 91/283/4 75/214/4 92/297/4
f 93/252/5 10/39/5 78/210/5
f 95/258/2 44/257/2 93/298/2
f 21/76/3 76/253/3 95/299/3
f 94/255/6 62/254/6 97/300/9
f 77/256/3 14/78/3 96/301/3
f 45/261/1 95/260/1 93/302/1
f 77/256/3 96/301/3 95/299/3
f 96/264/6 78/263/6 108/303/6
f 68/267/4 96/266/4 109/304/4
f 97/269/9 75/214/4 110/305/10
f 21/76/3 108/306/3 98/270/3
f 80/217/3 98/270/3 69/272/3
f 109/307/3 14/78/3 69/272/3
f 99/273/6 82/219/6 111/308/11
f 99/309/5 90/278/5 66/235/5
f 82/310/6 94/311/6 112/312/12
f 100/274/4 66/175/4 101/277/4
f 68/313/1 98/314/1 83/315/1
f 98/316/2 78/317/2 83/318/2
f 101/277/4 84/233/4 100/274/4
f 84/233/4 101/277/4 85/234/4
f 56/289/4 102/288/4 86/319/4
f 37/237/5 102/279/5 113/320/5
f 37/237/5 114/321/5 103/280/5
f 115/322/5 87/281/5 103/280/5
f 99/323/4 91/283/4 87/282/4
f 72/239/3 116/324/3 104/285/3
f 117/325/2 88/326/2 104/327/2
f 118/328/3 38/190/3 105/286/3
f 88/329/1 103/330/1 105/331/1
f 106/287/3 38/190/3 119/332/3
f 89/241/3 106/287/3 107/291/3
f 107/333/1 102/334/1 89/335/1
f 72/239/3 107/291/3 120/336/3
f 107/294/2 90/293/2 121/337/2
f 75/214/4 91/283/4 99/323/4
f 21/76/3 95/299/3 108/306/3
f 97/300/9 112/338/12 94/255/6
f 96/301/3 14/78/3 109/307/3
f 108/306/3 95/299/3 96/301/3
f 78/317/2 98/316/2 108/339/2
f 98/314/1 68/313/1 109/340/1
f 110/305/10 75/214/4 122/341/4
f 112/338/12 97/300/9 110/342/10
f 109/307/3 69/272/3 98/270/3
f 82/219/6 122/343/13 111/308/11
f 111/344/11 75/214/4 99/323/4
f 90/278/5 99/309/5 87/281/5
f 82/310/6 112/312/12 123/345/6
f 113/320/5 102/279/5 124/346/5
f 37/237/5 113/320/5 125/347/5
f 37/237/5 126/348/5 114/321/5
f 118/349/4 103/350/4 114/351/4
f 117/352/5 87/281/5 115/322/5
f 103/330/1 88/329/1 115/353/1
f 72/239/3 127/354/3 116/324/3
f 104/285/3 116/324/3 118/328/3
f 88/326/2 117/325/2 115/355/2
f 118/356/6 117/357/6 104/358/6
f 128/359/3 38/190/3 118/328/3
f 103/350/4 118/349/4 105/360/4
f 119/332/3 38/190/3 129/361/3
f 125/362/4 106/363/4 119/364/4
f 120/336/3 107/291/3 106/287/3
f 102/334/1 107/333/1 121/365/1
f 72/239/3 120/336/3 130/366/3
f 90/278/5 87/281/5 121/367/5
f 122/341/13 75/214/4 111/344/11
f 123/368/6 110/342/6 122/343/13
f 110/342/10 123/368/6 112/338/12
f 122/343/13 82/219/6 123/368/6
f 121/367/5 124/346/5 102/279/5
f 124/369/6 106/370/6 113/371/6
f 106/363/4 125/362/4 113/372/4
f 37/237/5 125/347/5 131/373/5
f 37/237/5 132/374/5 126/348/5
f 114/321/5 126/348/5 117/352/5
f 117/357/6 118/356/6 114/375/6
f 133/376/5 87/281/5 117/352/5
f 72/239/3 134/377/3 127/354/3
f 135/378/2 116/379/2 127/380/2
f 128/359/3 118/328/3 116/324/3
f 136/381/3 38/190/3 128/359/3
f 129/361/3 38/190/3 137/382/3
f 119/332/3 129/361/3 130/366/3
f 130/383/1 125/384/1 119/385/1
f 106/370/6 124/369/6 120/386/6
f 124/387/2 130/388/2 120/389/2
f 72/239/3 130/366/3 138/390/3
f 121/367/5 87/281/5 124/346/5
f 131/373/5 125/347/5 139/391/5
f 37/237/5 131/373/5 140/392/5
f 37/237/5 140/392/5 132/374/5
f 136/393/4 126/394/4 132/395/4
f 133/376/5 117/352/5 126/348/5
f 135/396/5 87/281/5 133/376/5
f 72/239/3 138/390/3 134/377/3
f 127/354/3 134/377/3 136/381/3
f 116/379/2 135/378/2 133/397/2
f 136/398/6 135/399/6 127/400/6
f 116/401/1 126/402/1 128/403/1
f 137/382/3 38/190/3 136/381/3
f 126/394/4 136/393/4 128/404/4
f 140/405/4 129/406/4 137/407/4
f 138/390/3 130/366/3 129/361/3
f 125/384/1 130/383/1 141/408/1
f 130/388/2 124/387/2 141/409/2
f 124/346/5 87/281/5 141/410/5
f 141/410/5 139/391/5 125/347/5
f 139/411/6 129/412/6 131/413/6
f 129/406/4 140/405/4 131/414/4
f 132/374/5 140/392/5 135/396/5
f 135/399/6 136/398/6 132/415/6
f 126/402/1 116/401/1 133/416/1
f 142/417/5 87/281/5 135/396/5
f 139/418/2 134/419/2 138/420/2
f 137/382/3 136/381/3 134/377/3
f 134/421/1 140/422/1 137/423/1
f 129/412/6 139/411/6 138/424/6
f 141/410/5 87/281/5 139/391/5
f 142/417/5 135/396/5 140/392/5
f 139/391/5 87/281/5 142/417/5
f 134/419/2 139/418/2 142/425/2
f 140/422/1 134/421/1 142/426/1
