# Blender v2.82 (sub 7) OBJ File: ''
# www.blender.org
mtllib default.mtl
usemtl default
v 0.002418 0.118288 -1.061113
v 0.006135 0.118777 -1.061113
v 0.006135 0.118777 0.532832
v -0.001300 0.118777 -1.061113
v 0.009599 0.120212 -1.061113
v 0.002418 0.118288 0.532723
v 0.009599 0.120212 0.533142
v -0.001300 0.118777 0.532832
v -0.004764 0.120212 -1.061113
v 0.012573 0.122495 -1.061113
v 0.012573 0.122495 0.533629
v -0.004764 0.120212 0.533142
v -0.007737 0.122495 -1.061113
v 0.014856 0.125469 -1.061113
v 0.014856 0.125469 0.534276
v -0.007737 0.122495 0.533629
v -0.010021 0.125469 -1.061113
v 0.016290 0.128933 -1.061113
v 0.016290 0.128933 0.535023
v -0.010021 0.125469 0.534276
v -0.011455 0.128933 0.535023
v -0.011455 0.128933 -1.061113
v 0.016780 0.132650 -1.061113
v 0.016780 0.132650 0.535821
v -0.011945 0.132650 0.535821
v -0.011945 0.132650 -1.061113
v -0.011455 0.136367 -1.061113
v 0.014856 0.139831 -1.061113
v 0.016290 0.136367 -1.061113
v 0.016290 0.136367 0.536627
v -0.010021 0.139831 -1.061113
v 0.012573 0.142805 -1.061113
v -0.011455 0.136367 0.536627
v -0.010021 0.139831 0.537370
v 0.014856 0.139831 0.537370
v -0.007737 0.142805 -1.061113
v -0.007737 0.142805 0.538008
v 0.009599 0.145087 -1.061113
v 0.012573 0.142805 0.538008
v 0.009599 0.145087 0.538508
v -0.004764 0.145087 -1.061113
v 0.006135 0.146522 -1.061113
v 0.006135 0.146522 0.538815
v -0.004764 0.145087 0.538508
v -0.001300 0.146522 -1.061113
v 0.002418 0.147012 -1.061113
v 0.002418 0.147012 0.538915
v -0.001300 0.146522 0.538815
vt 0.997848 0.007925
vt 0.995526 0.007651
vt 0.941464 0.348574
vt 0.943789 0.348825
vt 0.938580 0.348251
vt 0.996956 0.958262
vt 0.999272 0.957992
vt 0.945620 0.617030
vt 0.992653 0.007262
vt 0.943300 0.617277
vt 0.935335 0.347879
vt 0.994088 0.958646
vt 0.989424 0.006786
vt 0.940421 0.617595
vt 0.986061 0.006255
vt 0.990862 0.959117
vt 0.931950 0.347487
vt 0.937178 0.617962
vt 0.982791 0.005705
vt 0.933792 0.618350
vt 0.987497 0.959644
vt 0.928655 0.347097
vt 0.930495 0.618736
vt 0.979839 0.005174
vt 0.984225 0.960190
vt 0.925675 0.346736
vt 0.927510 0.619094
vt 0.977404 0.004698
vt 0.981267 0.960718
vt 0.923213 0.346433
vt 0.920574 0.479094
vt 0.856090 0.143349
vt 0.853156 0.143993
vt 0.917672 0.479907
vt 0.849892 0.144583
vt 0.914438 0.480653
vt 0.216087 0.647433
vt 0.235776 0.301857
vt 0.233371 0.301655
vt 0.213673 0.647392
vt 0.230425 0.301441
vt 0.846519 0.145076
vt 0.210719 0.647316
vt 0.911090 0.481280
vt 0.227140 0.301230
vt 0.207428 0.647213
vt 0.907860 0.481747
vt 0.204023 0.647086
vt 0.843269 0.145437
vt 0.223739 0.301036
vt 0.904965 0.482020
vt 0.200736 0.646943
vt 0.840361 0.145646
vt 0.220454 0.300872
vt 0.217509 0.300750
vt 0.197792 0.646799
vn 0.1304 -0.9915 0.0000
vn 0.3827 -0.9239 0.0000
vn -0.1304 -0.9915 0.0000
vn 0.6089 -0.7932 0.0000
vn -0.3827 -0.9239 0.0000
vn 0.7932 -0.6089 0.0000
vn -0.6091 -0.7931 0.0000
vn 0.9240 -0.3825 0.0000
vn -0.7931 -0.6091 0.0000
vn -0.9240 -0.3825 0.0000
vn 0.9914 -0.1307 0.0000
vn -0.9914 -0.1307 0.0000
vn 0.9914 0.1307 0.0000
vn -0.9914 0.1307 0.0000
vn -0.9240 0.3825 0.0000
vn 0.9240 0.3825 0.0000
vn 0.7932 0.6089 0.0000
vn -0.7931 0.6091 0.0000
vn 0.6088 0.7934 0.0000
vn -0.6089 0.7933 0.0000
vn 0.3827 0.9239 0.0000
vn -0.3827 0.9239 0.0000
vn 0.1307 0.9914 0.0000
vn -0.1307 0.9914 0.0000
f 1/1/1 2/2/1 3/3/1
f 3/3/1 6/4/1 1/1/1
f 7/5/2 3/3/2 2/2/2
f 4/6/3 1/7/3 6/8/3
f 2/2/2 5/9/2 7/5/2
f 6/8/3 8/10/3 4/6/3
f 11/11/4 7/5/4 5/9/4
f 9/12/5 4/6/5 8/10/5
f 5/9/4 10/13/4 11/11/4
f 8/10/5 12/14/5 9/12/5
f 11/11/6 10/13/6 14/15/6
f 13/16/7 9/12/7 12/14/7
f 14/15/6 15/17/6 11/11/6
f 12/14/7 16/18/7 13/16/7
f 15/17/8 14/15/8 18/19/8
f 13/16/9 16/18/9 20/20/9
f 20/20/9 17/21/9 13/16/9
f 18/19/8 19/22/8 15/17/8
f 17/21/10 20/20/10 21/23/10
f 19/22/11 18/19/11 23/24/11
f 21/23/10 22/25/10 17/21/10
f 23/24/11 24/26/11 19/22/11
f 22/25/12 21/23/12 25/27/12
f 24/26/13 23/24/13 29/28/13
f 25/27/12 26/29/12 22/25/12
f 29/28/13 30/30/13 24/26/13
f 26/31/14 25/32/14 33/33/14
f 33/33/14 27/34/14 26/31/14
f 34/35/15 31/36/15 27/34/15
f 30/37/16 29/38/16 28/39/16
f 35/40/17 28/39/17 32/41/17
f 27/34/15 33/33/15 34/35/15
f 31/36/18 34/35/18 37/42/18
f 28/39/16 35/40/16 30/37/16
f 32/41/17 39/43/17 35/40/17
f 37/42/18 36/44/18 31/36/18
f 32/41/19 38/45/19 40/46/19
f 40/46/19 39/43/19 32/41/19
f 41/47/20 36/44/20 37/42/20
f 43/48/21 40/46/21 38/45/21
f 37/42/20 44/49/20 41/47/20
f 38/45/21 42/50/21 43/48/21
f 45/51/22 41/47/22 44/49/22
f 47/52/23 43/48/23 42/50/23
f 44/49/22 48/53/22 45/51/22
f 42/50/23 46/54/23 47/52/23
f 46/54/24 45/55/24 48/56/24
f 48/56/24 47/52/24 46/54/24
