# Blender v2.82 (sub 7) OBJ File: ''
# www.blender.org
mtllib default.mtl
usemtl default
v 0.352355 0.048605 -0.921393
v 0.353371 0.049069 0.856211
v 0.353371 0.049069 -0.921393
v 0.352355 0.048605 0.855111
v 0.354430 0.049434 0.857357
v 0.389981 0.058031 -0.921393
v 0.351390 0.048046 -0.921393
v -0.356683 0.049069 0.856211
v 0.354430 0.049434 -0.921393
v -0.357741 0.049434 0.857357
v 0.351390 0.048046 0.854068
v -0.355666 0.048605 0.855111
v 0.389981 0.058031 0.895824
v -0.393292 0.058031 0.895824
v 0.350487 0.047399 -0.921393
v -0.355666 0.048605 -0.921393
v -0.356683 0.049069 -0.921393
v -0.357741 0.049434 -0.921393
v 0.349654 0.046669 -0.921393
v 0.389981 -0.060944 -0.921393
v 0.350487 0.047399 0.853091
v -0.354702 0.048046 0.854068
v -0.354702 0.048046 -0.921393
v -0.393292 -0.060944 0.895824
v -0.393292 0.058031 -0.921393
v 0.348900 0.045863 -0.921393
v 0.389981 -0.060944 0.895824
v 0.354430 -0.052348 -0.921393
v 0.348230 0.044990 -0.921393
v 0.349654 0.046669 0.852189
v 0.353371 -0.051982 -0.921393
v -0.353799 0.047399 0.853091
v -0.353799 0.047399 -0.921393
v 0.354430 -0.052348 0.857357
v -0.393292 -0.060944 -0.921393
v 0.347653 0.044057 -0.921393
v 0.348230 0.044990 0.850649
v 0.348900 0.045863 0.851373
v 0.352355 -0.051518 -0.921393
v -0.352966 0.046669 -0.921393
v -0.357741 -0.052348 0.857357
v -0.357741 -0.052348 -0.921393
v 0.347173 0.043073 -0.921393
v 0.347653 0.044057 0.850024
v -0.352966 0.046669 0.852189
v 0.351390 -0.050960 -0.921393
v 0.353371 -0.051982 0.856211
v -0.352211 0.045863 -0.921393
v -0.356683 -0.051982 -0.921393
v 0.346795 0.042049 -0.921393
v 0.347173 0.043073 0.849505
v -0.352211 0.045863 0.851373
v -0.351542 0.044990 0.850649
v 0.350487 -0.050312 -0.921393
v 0.352355 -0.051518 0.855111
v -0.351542 0.044990 -0.921393
v -0.356683 -0.051982 0.856211
v -0.355666 -0.051518 -0.921393
v 0.346524 0.040994 -0.921393
v 0.346795 0.042049 0.849096
v -0.350965 0.044057 0.850024
v 0.349654 -0.049582 -0.921393
v 0.351390 -0.050960 0.854068
v -0.350965 0.044057 -0.921393
v -0.354702 -0.050960 -0.921393
v 0.346524 -0.043907 -0.921393
v 0.346524 0.040994 0.848802
v -0.350485 0.043073 0.849505
v 0.348900 -0.048776 -0.921393
v 0.350487 -0.050312 0.853091
v -0.355666 -0.051518 0.855111
v -0.350485 0.043073 -0.921393
v -0.353799 -0.050312 -0.921393
v 0.346795 -0.044963 -0.921393
v 0.346524 -0.043907 0.848802
v -0.350107 0.042049 0.849096
v 0.348230 -0.047903 -0.921393
v 0.349654 -0.049582 0.852189
v -0.354702 -0.050960 0.854068
v -0.350107 0.042049 -0.921393
v -0.352966 -0.049582 -0.921393
v 0.347173 -0.045987 -0.921393
v 0.346795 -0.044963 0.849096
v 0.346524 -0.001457 0.848802
v -0.349835 0.040994 0.848802
v 0.347653 -0.046970 -0.921393
v 0.348900 -0.048776 0.851373
v -0.353799 -0.050312 0.853091
v -0.349835 0.040994 -0.921393
v -0.352211 -0.048776 -0.921393
v 0.347173 -0.045987 0.849505
v -0.349835 -0.043907 0.848802
v 0.348230 -0.047903 0.850649
v -0.352966 -0.049582 0.852189
v -0.349835 -0.043907 -0.921393
v -0.351542 -0.047903 -0.921393
v 0.347653 -0.046970 0.850024
v -0.350107 -0.044963 0.849096
v -0.351542 -0.047903 0.850649
v -0.352211 -0.048776 0.851373
v -0.350107 -0.044963 -0.921393
v -0.350965 -0.046970 -0.921393
v -0.350485 -0.045987 0.849505
v -0.350965 -0.046970 0.850024
v -0.350485 -0.045987 -0.921393
vt 0.013104 0.006983
vt 0.012811 0.671766
vt 0.012811 0.007026
vt 0.013104 0.671312
vt 0.012506 0.672228
vt 0.532541 0.735152
vt 0.543387 0.738779
vt 0.532834 0.735330
vt 0.013382 0.006933
vt 0.217487 0.671764
vt 0.012506 0.007059
vt 0.217792 0.672226
vt 0.532263 0.734937
vt 0.533139 0.735471
vt 0.013382 0.670871
vt 0.217193 0.671311
vt 0.002258 0.687394
vt 0.228039 0.687392
vt 0.532002 0.734688
vt 0.002258 0.007840
vt 0.013642 0.006874
vt 0.217194 0.006982
vt 0.217487 0.007024
vt 0.217792 0.007057
vt 0.531762 0.734407
vt 0.888209 0.706335
vt 0.853914 0.006993
vt 0.888209 0.006993
vt 0.013642 0.670447
vt 0.216916 0.670870
vt 0.216916 0.006931
vt 0.483675 0.695549
vt 0.449380 0.996986
vt 0.449380 0.695549
vt 0.228039 0.007839
vt 0.531545 0.734097
vt 0.013882 0.006807
vt 0.853914 0.706335
vt 0.533139 0.696301
vt 0.543387 0.692993
vt 0.012652 0.694658
vt 0.001806 0.698285
vt 0.002099 0.698107
vt 0.001528 0.698500
vt 0.002404 0.697966
vt 0.483675 0.996986
vt 0.923190 0.706335
vt 0.888895 0.006993
vt 0.923190 0.006993
vt 0.531352 0.733761
vt 0.979349 0.689374
vt 0.979581 0.006825
vt 0.979581 0.689374
vt 0.013882 0.670044
vt 0.232442 0.015374
vt 0.242950 0.711884
vt 0.232442 0.711985
vt 0.532834 0.696442
vt 0.216655 0.670446
vt 0.216655 0.006872
vt 0.001268 0.698749
vt 0.446893 0.007049
vt 0.242950 0.030020
vt 0.888895 0.706335
vt 0.531185 0.733401
vt 0.979097 0.007418
vt 0.979097 0.689374
vt 0.979348 0.007140
vt 0.532541 0.696620
vt 0.243273 0.711885
vt 0.001028 0.699030
vt 0.437934 0.022451
vt 0.002404 0.737136
vt 0.012652 0.740444
vt 0.437934 0.704315
vt 0.446893 0.703660
vt 0.531047 0.733023
vt 0.978828 0.007659
vt 0.978828 0.689374
vt 0.014100 0.669665
vt 0.216415 0.670042
vt 0.532263 0.696835
vt 0.243273 0.030460
vt 0.243593 0.711889
vt 0.216415 0.006806
vt 0.000810 0.699340
vt 0.002099 0.736995
vt 0.530938 0.732629
vt 0.978544 0.007858
vt 0.978544 0.689374
vt 0.014293 0.669315
vt 0.216198 0.669664
vt 0.014459 0.668997
vt 0.216005 0.669314
vt 0.532002 0.697084
vt 0.243593 0.030885
vt 0.243908 0.711897
vt 0.000617 0.699676
vt 0.923813 0.007176
vt 0.924045 0.689725
vt 0.923813 0.689725
vt 0.437678 0.704338
vt 0.437678 0.022913
vt 0.001806 0.736817
vt 0.530860 0.732223
vt 0.978249 0.008016
vt 0.978249 0.689374
vt 0.509927 0.965009
vt 0.510142 0.696336
vt 0.510142 0.965193
vt 0.215838 0.668995
vt 0.924045 0.007490
vt 0.531762 0.697365
vt 0.243908 0.031293
vt 0.244213 0.711908
vt 0.000451 0.700035
vt 0.924297 0.689725
vt 0.437441 0.704364
vt 0.001528 0.736602
vt 0.530860 0.699549
vt 0.977945 0.008129
vt 0.977945 0.689374
vt 0.509690 0.964863
vt 0.509927 0.696521
vt 0.924297 0.007769
vt 0.924566 0.689725
vt 0.924566 0.008009
vt 0.531545 0.697675
vt 0.244213 0.031679
vt 0.244507 0.711923
vt 0.437441 0.023360
vt 0.000313 0.700414
vt 0.437227 0.704392
vt 0.001268 0.736353
vt 0.530938 0.699143
vt 0.953472 0.008129
vt 0.953472 0.689374
vt 0.509433 0.964759
vt 0.509690 0.696666
vt 0.924849 0.689725
vt 0.924849 0.008209
vt 0.531352 0.698011
vt 0.244507 0.032039
vt 0.244786 0.711941
vt 0.437227 0.023788
vt 0.000204 0.700808
vt 0.437038 0.704423
vt 0.001028 0.736072
vt 0.531047 0.698749
vt 0.953168 0.008016
vt 0.953168 0.689374
vt 0.000000 0.000000
vt 0.000000 0.000000
vt 0.000000 0.000000
vt 0.509433 0.696771
vt 0.925144 0.689725
vt 0.925144 0.008366
vt 0.531185 0.698370
vt 0.244786 0.032370
vt 0.245049 0.711962
vt 0.484277 0.695245
vt 0.484563 0.965963
vt 0.484277 0.966284
vt 0.437038 0.024193
vt 0.000125 0.701214
vt 0.951557 0.689725
vt 0.951768 0.006829
vt 0.951768 0.689725
vt 0.000810 0.735761
vt 0.952872 0.007858
vt 0.952872 0.689374
vt 0.486119 0.964863
vt 0.486434 0.696771
vt 0.486434 0.964759
vt 0.497933 0.964759
vt 0.925449 0.689725
vt 0.925449 0.008480
vt 0.952320 0.007418
vt 0.952589 0.689374
vt 0.952320 0.689374
vt 0.245049 0.032669
vt 0.484563 0.695566
vt 0.484862 0.965673
vt 0.000125 0.733888
vt 0.951558 0.007176
vt 0.951325 0.689725
vt 0.000617 0.735425
vt 0.952589 0.007659
vt 0.485802 0.965009
vt 0.486119 0.696666
vt 0.949922 0.689725
vt 0.485170 0.696114
vt 0.485170 0.965415
vt 0.484862 0.695856
vt 0.000204 0.734294
vt 0.951325 0.007490
vt 0.951074 0.007769
vt 0.951073 0.689725
vt 0.000451 0.735066
vt 0.485484 0.965193
vt 0.485802 0.696521
vt 0.950226 0.689725
vt 0.949922 0.008480
vt 0.950226 0.008366
vt 0.485484 0.696336
vt 0.000313 0.734688
vt 0.950805 0.008009
vt 0.950805 0.689725
vt 0.950521 0.689725
vt 0.950521 0.008209
vn -0.4154 0.9096 0.0000
vn -0.3258 0.9454 0.0000
vn -0.0001 0.0000 1.0000
vn -0.0000 0.0000 1.0000
vn -0.5012 0.8653 0.0000
vn 0.0000 0.9214 -0.3887
vn -0.3259 0.9454 0.0000
vn -0.0000 0.9528 -0.3035
vn -0.2350 0.9720 0.0000
vn -0.0000 0.9759 -0.2181
vn -0.5824 0.8129 0.0000
vn -0.0000 0.8814 -0.4724
vn 0.4151 0.9098 0.0000
vn 0.3261 0.9453 0.0000
vn 0.2350 0.9720 0.0000
vn 1.0000 0.0000 0.0000
vn 0.5016 0.8651 0.0000
vn 0.5017 0.8651 0.0000
vn -0.6591 0.7521 0.0000
vn -0.0000 0.8337 -0.5521
vn 0.0002 0.0000 1.0000
vn -0.0002 0.0000 1.0000
vn -1.0000 0.0000 0.0000
vn -0.7303 0.6832 0.0000
vn -0.6591 0.7520 0.0000
vn -0.2350 -0.9720 0.0000
vn 0.5824 0.8129 0.0000
vn 0.0000 -0.9759 -0.2181
vn -0.7933 0.6088 0.0000
vn -0.7303 0.6831 0.0000
vn 0.0000 0.7773 -0.6291
vn 0.0001 0.0000 1.0000
vn -0.3266 -0.9451 0.0000
vn -0.3267 -0.9451 0.0000
vn 0.2350 -0.9720 0.0000
vn -0.8505 0.5260 0.0000
vn -0.0000 0.7114 -0.7027
vn -0.4154 -0.9096 0.0000
vn 0.6591 0.7520 0.0000
vn 0.6591 0.7521 0.0000
vn 0.0000 -0.9526 -0.3042
vn -0.8988 0.4384 0.0000
vn 0.0000 0.6384 -0.7697
vn 0.0000 0.5566 -0.8308
vn -0.5006 -0.8657 0.0000
vn 0.7298 0.6837 0.0000
vn 0.7298 0.6836 0.0000
vn 0.3269 -0.9451 0.0000
vn -0.9381 0.3463 0.0000
vn -0.9381 0.3464 0.0000
vn -0.0000 0.4665 -0.8845
vn -0.5830 -0.8125 0.0000
vn 0.0000 -0.9214 -0.3886
vn 0.0000 -0.9214 -0.3887
vn 0.7938 0.6082 0.0000
vn 0.7937 0.6083 0.0000
vn 0.4151 -0.9098 0.0000
vn -0.9686 0.2487 0.0000
vn -0.9686 0.2488 0.0000
vn 0.0000 0.3709 -0.9287
vn 0.8505 0.5260 0.0000
vn 0.8505 0.5261 0.0000
vn -0.6591 -0.7520 0.0000
vn -0.6591 -0.7521 0.0000
vn 0.0000 -0.8817 -0.4717
vn 0.5010 -0.8655 0.0000
vn 0.0000 0.2685 -0.9633
vn 0.8988 0.4384 0.0000
vn -0.7303 -0.6831 0.0000
vn -0.7303 -0.6832 0.0000
vn 0.0000 -0.8334 -0.5527
vn 0.5009 -0.8655 0.0000
vn 0.5830 -0.8125 0.0000
vn -0.9686 -0.2485 0.0000
vn -0.9686 -0.2486 0.0000
vn 0.9381 0.3463 0.0000
vn -0.7933 -0.6088 0.0000
vn 0.0000 -0.7773 -0.6291
vn 0.6591 -0.7521 0.0000
vn -0.9381 -0.3464 0.0000
vn -0.9381 -0.3463 0.0000
vn 0.0000 -0.2682 -0.9634
vn -0.0000 0.0000 -1.0000
vn 0.9683 0.2497 0.0000
vn 0.9683 0.2496 0.0000
vn -0.8505 -0.5260 0.0000
vn -0.8505 -0.5259 0.0000
vn 0.0000 -0.7114 -0.7027
vn 0.0000 -0.7115 -0.7027
vn -0.0003 -0.0000 1.0000
vn 0.6591 -0.7520 0.0000
vn 0.7298 -0.6836 0.0000
vn -0.8986 -0.4388 0.0000
vn 0.0000 -0.3709 -0.9287
vn 0.0000 -0.6384 -0.7697
vn 0.0003 -0.0000 1.0000
vn 0.7298 -0.6837 0.0000
vn 0.7937 -0.6083 0.0000
vn 0.7938 -0.6082 0.0000
vn 0.0000 -0.4669 -0.8843
vn 0.9684 -0.2494 0.0000
vn -0.0000 -0.5566 -0.8308
vn 0.8505 -0.5260 0.0000
vn 0.9381 -0.3464 0.0000
vn 0.9381 -0.3462 0.0000
vn 0.8986 -0.4388 0.0000
f 1/1/1 2/2/1 3/3/1
f 2/2/1 1/1/1 4/4/1
f 5/5/2 3/3/2 2/2/2
f 1/6/3 6/7/4 3/8/4
f 7/9/5 4/4/5 1/1/5
f 4/4/6 8/10/6 2/2/6
f 3/3/7 5/5/7 9/11/7
f 2/2/8 10/12/8 5/5/8
f 7/13/4 6/7/4 1/6/3
f 3/8/4 6/7/4 9/14/4
f 4/4/5 7/9/5 11/15/5
f 8/10/6 4/4/6 12/16/6
f 10/12/8 2/2/8 8/10/8
f 13/17/9 9/11/9 5/5/9
f 14/18/10 5/5/10 10/12/10
f 15/19/4 6/7/4 7/13/4
f 9/11/9 13/17/9 6/20/9
f 15/21/11 11/15/11 7/9/11
f 11/15/12 12/16/12 4/4/12
f 16/22/13 8/10/13 12/16/13
f 17/23/14 10/12/14 8/10/14
f 5/5/10 14/18/10 13/17/10
f 18/24/15 14/18/15 10/12/15
f 19/25/4 6/7/4 15/19/4
f 13/26/16 20/27/16 6/28/16
f 11/15/11 15/21/11 21/29/11
f 12/16/12 11/15/12 22/30/12
f 8/10/13 16/22/13 17/23/13
f 12/16/17 23/31/18 16/22/18
f 10/12/14 17/23/14 18/24/14
f 24/32/4 13/33/4 14/34/4
f 14/18/15 18/24/15 25/35/15
f 26/36/4 6/7/4 19/25/4
f 19/37/19 21/29/19 15/21/19
f 20/27/16 13/26/16 27/38/16
f 6/7/4 28/39/3 20/40/4
f 21/29/20 22/30/20 11/15/20
f 23/31/18 12/16/17 22/30/17
f 25/41/4 16/42/3 17/43/21
f 25/41/4 23/44/4 16/42/3
f 25/41/4 17/43/21 18/45/22
f 13/33/4 24/32/4 27/46/4
f 25/47/23 24/48/23 14/49/23
f 29/50/4 6/7/4 26/36/4
f 26/51/24 30/52/24 19/53/24
f 21/29/25 19/37/25 30/54/25
f 27/55/26 28/56/26 20/57/26
f 28/39/3 6/7/4 31/58/4
f 22/30/20 21/29/20 32/59/20
f 22/30/27 33/60/27 23/31/27
f 25/41/4 33/61/4 23/44/4
f 24/62/28 34/63/28 27/55/28
f 24/48/23 25/47/23 35/64/23
f 36/65/4 6/7/4 29/50/4
f 37/66/29 26/51/29 29/67/29
f 30/52/30 26/51/30 38/68/30
f 30/54/31 32/59/31 21/29/31
f 28/56/26 27/55/26 34/63/26
f 31/58/4 6/7/4 39/69/32
f 34/63/33 31/70/34 28/56/34
f 33/60/27 22/30/27 32/59/27
f 25/41/4 40/71/4 33/61/4
f 34/63/28 24/62/28 41/72/28
f 42/73/4 25/41/4 35/74/4
f 42/75/35 24/62/35 35/76/35
f 43/77/4 6/7/4 36/65/4
f 44/78/36 29/67/36 36/79/36
f 26/51/29 37/66/29 38/68/29
f 29/67/36 44/78/36 37/66/36
f 38/80/37 45/81/37 30/54/37
f 32/59/31 30/54/31 45/81/31
f 39/69/32 6/7/4 46/82/4
f 47/83/38 39/84/38 31/70/38
f 31/70/34 34/63/33 47/83/33
f 32/59/39 40/85/40 33/60/40
f 25/41/4 48/86/4 40/71/4
f 24/62/35 42/75/35 41/72/35
f 41/72/41 47/83/41 34/63/41
f 25/41/4 42/73/4 49/87/4
f 50/88/4 6/7/4 43/77/4
f 51/89/42 36/79/42 43/90/42
f 36/79/42 51/89/42 44/78/42
f 37/91/43 52/92/43 38/80/43
f 44/93/44 53/94/44 37/91/44
f 45/81/37 38/80/37 52/92/37
f 40/85/40 32/59/39 45/81/39
f 46/82/4 6/7/4 54/95/4
f 55/96/45 46/97/45 39/84/45
f 39/84/38 47/83/38 55/96/38
f 25/41/4 56/98/4 48/86/4
f 45/99/46 48/100/47 40/101/47
f 49/102/48 41/72/48 42/75/48
f 47/83/41 41/72/41 57/103/41
f 25/41/4 49/87/4 58/104/4
f 59/105/4 6/7/4 50/88/4
f 60/106/49 43/90/50 50/107/50
f 43/90/50 60/106/49 51/89/49
f 51/108/51 61/109/51 44/110/51
f 52/92/43 37/91/43 53/94/43
f 53/94/44 44/93/44 61/111/44
f 48/100/47 45/99/46 52/112/46
f 54/95/4 6/7/4 62/113/4
f 63/114/52 54/115/52 46/97/52
f 46/97/45 55/96/45 63/114/45
f 57/103/53 55/96/54 47/83/54
f 25/41/4 64/116/4 56/98/4
f 52/112/55 56/117/56 48/100/56
f 41/72/48 49/102/48 57/103/48
f 58/118/57 57/103/57 49/102/57
f 25/41/4 58/104/4 65/119/4
f 66/120/22 6/7/4 59/105/4
f 67/121/58 50/107/59 59/122/59
f 50/107/59 67/121/58 60/106/58
f 60/123/60 68/124/60 51/108/60
f 61/109/51 51/108/51 68/124/51
f 56/117/56 52/112/55 53/125/55
f 64/126/61 53/125/62 61/127/62
f 62/113/4 6/7/4 69/128/4
f 70/129/63 62/130/64 54/115/64
f 54/115/52 63/114/52 70/129/52
f 71/131/65 63/114/65 55/96/65
f 55/96/54 57/103/53 71/131/53
f 25/41/4 72/132/4 64/116/4
f 53/125/62 64/126/61 56/117/61
f 57/103/57 58/118/57 71/131/57
f 65/133/66 71/131/66 58/118/66
f 25/41/4 65/119/4 73/134/4
f 74/135/22 6/7/4 66/120/22
f 75/136/23 59/122/23 66/137/23
f 59/122/23 75/136/23 67/121/23
f 67/138/67 76/139/67 60/123/67
f 68/124/60 60/123/60 76/139/60
f 72/140/68 61/127/68 68/141/68
f 61/127/68 72/140/68 64/126/68
f 69/128/4 6/7/4 77/142/4
f 78/143/69 69/144/70 62/130/70
f 62/130/64 70/129/63 78/143/63
f 79/145/71 70/129/71 63/114/71
f 63/114/65 71/131/65 79/145/65
f 25/41/4 80/146/4 72/132/4
f 71/131/72 65/133/72 79/145/72
f 73/147/73 79/145/73 65/133/73
f 25/41/4 73/134/4 81/148/4
f 82/149/4 6/7/4 74/135/22
f 83/150/74 66/137/75 74/151/75
f 66/137/75 83/150/74 75/136/74
f 67/152/23 75/153/23 84/154/23
f 76/139/67 67/138/67 85/155/67
f 80/156/76 68/141/76 76/157/76
f 68/141/76 80/156/76 72/140/76
f 77/142/4 6/7/4 86/158/4
f 87/159/77 77/160/77 69/144/77
f 69/144/70 78/143/69 87/159/69
f 88/161/78 78/162/78 70/163/78
f 70/129/71 79/145/71 88/164/71
f 25/41/4 89/165/4 80/146/4
f 79/145/73 73/147/73 88/164/73
f 81/166/79 88/167/79 73/168/79
f 25/41/4 81/148/4 90/169/4
f 86/158/4 6/7/4 82/149/4
f 91/170/80 74/151/81 82/171/81
f 74/151/81 91/170/80 83/150/80
f 83/172/82 92/173/82 75/174/82
f 75/174/83 85/155/83 84/175/83
f 84/175/83 85/155/83 67/138/83
f 89/176/84 76/157/85 85/177/85
f 76/157/85 89/176/84 80/156/84
f 93/178/86 86/179/87 77/180/87
f 77/160/77 87/159/77 93/181/77
f 94/182/88 87/183/89 78/162/89
f 78/162/78 88/161/78 94/182/78
f 25/41/4 95/184/90 89/165/4
f 88/167/91 81/166/91 94/185/91
f 90/186/92 94/185/92 81/166/92
f 25/41/4 90/169/4 96/187/4
f 97/188/93 82/171/93 86/179/93
f 82/171/93 97/188/93 91/170/93
f 91/189/94 98/190/94 83/172/94
f 92/173/82 83/172/82 98/190/82
f 85/155/83 75/174/83 92/173/83
f 85/177/16 95/191/16 89/176/16
f 86/179/87 93/178/86 97/188/86
f 87/183/95 99/192/95 93/193/95
f 87/183/89 94/182/88 100/194/88
f 25/41/4 101/195/96 95/184/90
f 94/185/97 90/186/97 100/196/97
f 99/197/98 90/186/99 96/198/99
f 25/41/4 96/187/4 102/199/32
f 97/200/100 103/201/100 91/189/100
f 98/190/94 91/189/94 103/201/94
f 101/202/101 92/203/101 98/204/101
f 95/191/16 85/177/16 92/203/16
f 93/193/102 104/205/102 97/200/102
f 99/192/95 87/183/95 100/194/95
f 104/205/102 93/193/102 99/192/102
f 25/41/4 105/206/4 101/195/96
f 92/203/101 101/202/101 95/191/101
f 90/186/99 99/197/98 100/196/98
f 96/198/103 104/207/103 99/197/103
f 104/207/103 96/198/103 102/208/103
f 25/41/4 102/199/32 105/206/4
f 103/201/100 97/200/100 104/205/100
f 105/209/104 98/204/105 103/210/105
f 98/204/105 105/209/104 101/202/104
f 102/208/106 103/210/106 104/207/106
f 103/210/106 102/208/106 105/209/106
