# Blender v2.82 (sub 7) OBJ File: '14306.blend'
# www.blender.org
mtllib default.mtl
usemtl default
v 0.008380 0.412284 -0.148034
v 0.012187 0.412050 -0.148169
v 0.010322 0.412383 -0.147977
v 0.006493 0.411761 -0.148336
v 0.010322 -0.088530 0.719629
v 0.008380 -0.088629 0.719572
v 0.006493 -0.089152 0.719270
v 0.013848 0.411310 -0.148596
v 0.012187 -0.088862 0.719437
v 0.004790 -0.090064 0.718743
v 0.004790 0.410849 -0.148863
v 0.012187 0.168655 0.273405
v 0.013848 -0.089603 0.719010
v 0.015191 0.410211 -0.149230
v 0.003387 -0.091302 0.718028
v 0.015191 -0.090701 0.718375
v 0.003387 0.409610 -0.149578
v 0.015191 0.188741 0.234368
v 0.016126 0.408830 -0.150028
v 0.016126 -0.092083 0.717578
v 0.002379 -0.092783 0.717174
v 0.002379 0.408130 -0.150432
v 0.016588 0.407259 -0.150935
v 0.016588 -0.093653 0.716671
v 0.001836 -0.094405 0.716237
v 0.001836 0.406508 -0.151369
v 0.016546 0.405607 -0.151889
v 0.016546 -0.095306 0.715717
v 0.001793 -0.096057 0.715283
v 0.001793 0.404856 -0.152323
v 0.016002 0.403985 -0.152825
v 0.016002 -0.096928 0.714781
v 0.002255 -0.097628 0.714376
v 0.002255 0.403285 -0.153229
v 0.014995 0.402504 -0.153680
v 0.014995 -0.098408 0.713926
v 0.003190 -0.099009 0.713579
v 0.003190 0.401903 -0.154027
v 0.013592 0.401266 -0.154395
v 0.013592 -0.099646 0.713211
v 0.004533 -0.100108 0.712945
v 0.004533 0.400805 -0.154661
v 0.011889 0.400354 -0.154922
v 0.006194 -0.100848 0.712517
v 0.011889 -0.100558 0.712684
v 0.006194 0.400064 -0.155089
v 0.010002 0.399831 -0.155224
v 0.008059 -0.101180 0.712325
v 0.010002 -0.101082 0.712382
v 0.008059 0.399732 -0.155281
v -0.019094 -0.092018 0.698431
v -0.019094 -0.085085 0.697465
v -0.019094 -0.086180 0.697374
v -0.019094 -0.080268 0.697864
v 0.026973 -0.086180 0.697374
v 0.026973 -0.092018 0.698431
v -0.019094 -0.074684 0.699867
v 0.026973 -0.085085 0.697465
v 0.026973 -0.097383 0.700963
v -0.019094 -0.097383 0.700963
v 0.026973 -0.080268 0.697864
v 0.026973 -0.074684 0.699867
v -0.019094 -0.069809 0.703247
v 0.026973 -0.101910 0.704797
v 0.026973 -0.069809 0.703247
v -0.019094 -0.101910 0.704797
v -0.019094 -0.065975 0.707774
v -0.019094 -0.105290 0.709672
v 0.026973 -0.065975 0.707774
v 0.026973 -0.105290 0.709672
v -0.019094 -0.063443 0.713140
v 0.026973 -0.063443 0.713140
v -0.019094 -0.107294 0.715256
v 0.026973 -0.107294 0.715256
v -0.019094 -0.062386 0.718977
v 0.026973 -0.062386 0.718977
v -0.019094 -0.107784 0.721168
v 0.026973 -0.107784 0.721168
v -0.019094 -0.062876 0.724889
v 0.026973 -0.062876 0.724889
v -0.019094 -0.106727 0.727005
v 0.026973 -0.106727 0.727005
v -0.019094 -0.064880 0.730473
v 0.026973 -0.064880 0.730473
v -0.019094 -0.104195 0.732371
v 0.026973 -0.104195 0.732371
v -0.019094 -0.068260 0.735348
v 0.026973 -0.068260 0.735348
v -0.019094 -0.100361 0.736898
v 0.026973 -0.100361 0.736898
v -0.019094 -0.072787 0.739182
v 0.026973 -0.095486 0.740278
v 0.026973 -0.072787 0.739182
v -0.019094 -0.095486 0.740278
v -0.019094 -0.078152 0.741714
v 0.026973 -0.089902 0.742281
v 0.026973 -0.078152 0.741714
v -0.019094 -0.089902 0.742281
v -0.019094 -0.085085 0.742680
v -0.019094 -0.083990 0.742771
v 0.026973 -0.085085 0.742680
v 0.026973 -0.083990 0.742771
vt 0.822789 0.615922
vt 0.821574 0.615040
vt 0.820085 0.614408
vt 0.823649 0.616995
vt 0.296859 0.879183
vt 0.298364 0.879183
vt 0.298364 0.265888
vt 0.940390 0.380572
vt 0.939051 0.380572
vt 0.939051 0.993867
vt 0.937423 0.380572
vt 0.937423 0.993867
vt 0.818425 0.614070
vt 0.296860 0.265889
vt 0.940390 0.993867
vt 0.935615 0.993867
vt 0.824094 0.618185
vt 0.995091 0.380572
vt 0.993423 0.380572
vt 0.993423 0.678575
vt 0.296844 0.296145
vt 0.296844 0.909440
vt 0.296844 0.611437
vt 0.833401 0.623026
vt 0.836104 0.621511
vt 0.834889 0.622394
vt 0.836963 0.620438
vt 0.935615 0.380572
vt 0.831741 0.623364
vt 0.837408 0.619248
vt 0.816707 0.614049
vt 0.993423 0.993866
vt 0.933751 0.993867
vt 0.830023 0.623386
vt 0.824094 0.619412
vt 0.996810 0.651731
vt 0.996810 0.380573
vt 0.995092 0.993867
vt 0.933751 0.380572
vt 0.837408 0.618021
vt 0.996810 0.993866
vt 0.815047 0.614345
vt 0.998462 0.993867
vt 0.931959 0.993867
vt 0.828363 0.623090
vt 0.823650 0.620591
vt 0.998462 0.380572
vt 0.931959 0.380573
vt 0.836963 0.616842
vt 0.813559 0.614940
vt 0.999935 0.993866
vt 0.930359 0.993867
vt 0.826875 0.622496
vt 0.822791 0.621642
vt 0.999935 0.380572
vt 0.930359 0.380572
vt 0.836103 0.615791
vt 0.812344 0.615791
vt 0.940616 0.380572
vt 0.940616 0.993866
vt 0.941914 0.993867
vt 0.929062 0.993867
vt 0.825659 0.621644
vt 0.821577 0.622495
vt 0.941913 0.380572
vt 0.929062 0.380572
vt 0.834889 0.614939
vt 0.811486 0.616843
vt 0.943513 0.993867
vt 0.991804 0.993866
vt 0.993277 0.993866
vt 0.993278 0.380572
vt 0.824800 0.620592
vt 0.820089 0.623089
vt 0.943512 0.380573
vt 0.991805 0.380573
vt 0.833400 0.614344
vt 0.811041 0.618022
vt 0.945305 0.993867
vt 0.990152 0.993867
vt 0.824355 0.619414
vt 0.818428 0.623386
vt 0.945305 0.380573
vt 0.990152 0.380573
vt 0.831740 0.614049
vt 0.811041 0.619248
vt 0.947168 0.993866
vt 0.988433 0.993867
vt 0.824355 0.618187
vt 0.816711 0.623364
vt 0.947168 0.380572
vt 0.988434 0.380573
vt 0.830022 0.614070
vt 0.811486 0.620439
vt 0.948976 0.380572
vt 0.986765 0.993866
vt 0.824799 0.616997
vt 0.815050 0.623026
vt 0.948976 0.993866
vt 0.986765 0.380572
vt 0.828362 0.614409
vt 0.812346 0.621512
vt 0.950605 0.380572
vt 0.985261 0.993866
vt 0.825658 0.615924
vt 0.813562 0.622394
vt 0.950605 0.993866
vt 0.985261 0.380572
vt 0.826874 0.615041
vt 0.951944 0.380572
vt 0.951944 0.993866
vt 0.541761 0.581433
vt 0.535545 0.582709
vt 0.536430 0.582373
vt 0.531651 0.584188
vt 0.040399 0.637842
vt 0.041327 0.609640
vt 0.041327 0.637842
vt 0.046764 0.609640
vt 0.046764 0.637842
vt 0.527748 0.586756
vt 0.036319 0.637842
vt 0.040399 0.609640
vt 0.052260 0.609640
vt 0.547279 0.581433
vt 0.032081 0.637842
vt 0.036319 0.609640
vt 0.635688 0.583772
vt 0.629472 0.582496
vt 0.634803 0.583436
vt 0.052260 0.637842
vt 0.643484 0.587819
vt 0.623953 0.582496
vt 0.524989 0.589901
vt 0.032081 0.609640
vt 0.639582 0.585252
vt 0.057441 0.609640
vt 0.646244 0.590964
vt 0.552610 0.582373
vt 0.116700 0.640264
vt 0.121478 0.612063
vt 0.121478 0.640264
vt 0.057441 0.637842
vt 0.618623 0.583436
vt 0.116700 0.612063
vt 0.523561 0.593409
vt 0.061951 0.637842
vt 0.647672 0.594472
vt 0.111369 0.612063
vt 0.557388 0.584189
vt 0.111369 0.640264
vt 0.061951 0.609640
vt 0.613845 0.585252
vt 0.523561 0.597041
vt 0.105850 0.612063
vt 0.690550 0.638840
vt 0.686648 0.610639
vt 0.690550 0.610639
vt 0.647672 0.598104
vt 0.561291 0.586757
vt 0.105850 0.640264
vt 0.686648 0.638840
vt 0.609942 0.587820
vt 0.524989 0.600549
vt 0.100520 0.612063
vt 0.681869 0.610639
vt 0.646244 0.601612
vt 0.564050 0.589902
vt 0.100520 0.640264
vt 0.681869 0.638840
vt 0.607183 0.590965
vt 0.527748 0.603694
vt 0.095741 0.612063
vt 0.676539 0.610639
vt 0.643485 0.604757
vt 0.565478 0.593410
vt 0.095741 0.640264
vt 0.676539 0.638840
vt 0.605755 0.594473
vt 0.531650 0.606262
vt 0.091839 0.612063
vt 0.671020 0.610639
vt 0.639583 0.607325
vt 0.565478 0.597042
vt 0.091839 0.640264
vt 0.671020 0.638840
vt 0.605755 0.598105
vt 0.536429 0.608078
vt 0.635505 0.638840
vt 0.630994 0.610639
vt 0.635505 0.610639
vt 0.665689 0.610639
vt 0.634804 0.609141
vt 0.564049 0.600550
vt 0.630994 0.638840
vt 0.665689 0.638840
vt 0.607183 0.601613
vt 0.541759 0.609018
vt 0.625814 0.638840
vt 0.660910 0.638840
vt 0.629474 0.610081
vt 0.561290 0.603695
vt 0.625814 0.610639
vt 0.660910 0.610639
vt 0.609943 0.604758
vt 0.547278 0.609018
vt 0.620318 0.638840
vt 0.609873 0.610639
vt 0.605635 0.638840
vt 0.605635 0.610639
vt 0.623955 0.610081
vt 0.557387 0.606262
vt 0.620318 0.610639
vt 0.609873 0.638840
vt 0.613845 0.607326
vt 0.553493 0.607742
vt 0.614881 0.638840
vt 0.613953 0.610639
vt 0.617739 0.608805
vt 0.613953 0.638840
vt 0.552608 0.608078
vt 0.614881 0.610639
vt 0.618624 0.609142
vn 0.0000 0.5000 -0.8660
vn 0.0000 -0.8663 -0.4994
vn 0.0000 0.4999 -0.8661
vn 0.0001 0.5002 -0.8659
vn 0.2018 0.8482 0.4897
vn 0.0271 0.8657 0.4998
vn 0.0708 0.8639 0.4987
vn -0.2253 0.8438 0.4871
vn -0.1428 0.8572 0.4949
vn -0.4558 0.7708 0.4450
vn -0.3816 0.8005 0.4622
vn 0.0000 0.5000 -0.8661
vn 0.2014 0.8483 0.4898
vn -0.5924 0.6977 0.4028
vn 0.5381 0.7299 0.4214
vn 0.4574 0.7701 0.4446
vn 0.4578 0.7700 0.4445
vn 1.0000 0.0009 0.0004
vn 0.6321 -0.7485 0.2006
vn -0.0000 0.4994 -0.8664
vn -0.0001 0.5003 -0.8659
vn -0.0000 -0.8661 -0.5000
vn 0.0000 0.5002 -0.8659
vn -0.6554 0.6541 0.3776
vn 0.0000 0.5004 -0.8658
vn -0.0001 -0.4998 0.8661
vn -0.7677 0.5549 0.3204
vn 0.0001 0.4997 -0.8662
vn 0.7521 0.5707 0.3295
vn 0.8274 0.4863 0.2808
vn 0.6867 0.6295 0.3635
vn 0.6022 0.6914 0.3992
vn -0.8173 0.4991 0.2881
vn 0.0000 0.4997 -0.8662
vn 0.7825 0.5392 0.3113
vn -0.0001 -0.5003 0.8658
vn 0.9064 0.3658 0.2112
vn -0.9002 0.3771 0.2177
vn 0.0000 0.4998 -0.8661
vn 0.9421 0.2904 0.1677
vn -0.9336 0.3104 0.1792
vn 0.9875 0.1363 0.0787
vn -0.9806 0.1696 0.0979
vn 0.9937 0.0971 0.0561
vn -0.9939 0.0952 0.0550
vn 0.0000 0.5001 -0.8659
vn -0.0000 -0.5001 0.8660
vn 0.9998 -0.0191 -0.0110
vn -0.9978 -0.0577 -0.0333
vn 0.0000 0.5001 -0.8660
vn 0.9882 -0.1327 -0.0766
vn 0.9806 -0.1698 -0.0980
vn -0.9876 -0.1361 -0.0786
vn -0.0000 -0.4998 0.8661
vn 0.9335 -0.3105 -0.1793
vn -0.9421 -0.2904 -0.1677
vn 0.0000 0.4996 -0.8663
vn 0.9003 -0.3769 -0.2176
vn -0.9064 -0.3658 -0.2112
vn 0.8174 -0.4988 -0.2880
vn -0.8113 -0.5063 -0.2923
vn 0.7678 -0.5549 -0.3203
vn -0.7521 -0.5707 -0.3295
vn 0.7137 -0.6066 -0.3502
vn -0.6151 -0.6828 -0.3942
vn -0.5382 -0.7299 -0.4214
vn 0.0000 -0.5004 0.8658
vn 0.4558 -0.7708 -0.4450
vn 0.5260 -0.7365 -0.4252
vn -0.3744 -0.8030 -0.4636
vn -0.0001 0.5000 -0.8660
vn 0.3817 -0.8004 -0.4621
vn -0.2882 -0.8293 -0.4788
vn -0.0001 0.5004 -0.8658
vn 0.2255 -0.8437 -0.4871
vn -0.1145 -0.8603 -0.4967
vn -0.0000 0.4995 -0.8663
vn -0.0001 -0.8659 -0.5002
vn 0.1427 -0.8572 -0.4949
vn -0.0271 -0.8657 -0.4998
vn -0.0000 -0.8659 -0.5002
vn -0.1068 -0.3445 -0.9327
vn -0.0281 0.0826 -0.9962
vn -0.0028 -0.1565 -0.9877
vn -0.0478 0.1808 -0.9824
vn 0.0046 -0.1083 -0.9941
vn 0.1068 -0.2615 -0.9593
vn -0.1934 0.4103 -0.8912
vn 0.0184 0.0827 -0.9964
vn 0.2934 -0.4817 -0.8258
vn -0.2934 -0.5521 -0.7805
vn 0.0446 0.2654 -0.9631
vn 0.1934 0.4868 -0.8519
vn -0.3068 0.6398 -0.7047
vn 0.3853 -0.6832 -0.6203
vn 0.5419 0.5649 -0.6223
vn -0.6410 -0.5683 -0.5159
vn -0.5616 0.7148 -0.4168
vn -0.6192 -0.6817 -0.3896
vn 0.5616 0.6755 -0.4778
vn 0.6192 -0.7132 -0.3285
vn -0.6599 0.7249 -0.1977
vn 0.6599 0.7048 -0.2604
vn -0.6855 -0.7040 -0.1854
vn 0.6855 -0.7176 -0.1230
vn -0.6979 0.7162 -0.0031
vn 0.6979 0.7131 -0.0659
vn -0.6979 -0.7162 0.0031
vn 0.6979 -0.7131 0.0659
vn -0.6855 0.7040 0.1854
vn 0.6855 0.7176 0.1230
vn -0.6599 -0.7249 0.1977
vn 0.6599 -0.7048 0.2604
vn -0.6192 0.6817 0.3896
vn 0.6192 0.7133 0.3284
vn -0.5616 -0.7148 0.4168
vn 0.5616 -0.6755 0.4778
vn -0.6410 0.5683 0.5159
vn 0.3853 0.6832 0.6203
vn -0.3068 -0.6398 0.7047
vn 0.5419 -0.5650 0.6223
vn -0.2934 0.5521 0.7804
vn 0.1934 -0.4868 0.8518
vn 0.2934 0.4816 0.8258
vn -0.1934 -0.4103 0.8912
vn -0.1068 0.3446 0.9327
vn 0.0446 -0.2655 0.9631
vn 0.1068 0.2615 0.9593
vn -0.0478 -0.1808 0.9824
vn -0.0281 -0.0826 0.9962
vn -0.0028 0.1564 0.9877
vn 0.0184 -0.0826 0.9964
vn 0.0046 0.1083 0.9941
f 1/1/1 3/2/2 2/3/3
f 2/3/3 4/4/4 1/1/1
f 2/5/5 3/6/6 5/7/7
f 3/8/6 1/9/8 6/10/9
f 1/9/8 4/11/10 7/12/11
f 2/3/3 8/13/12 4/4/4
f 5/7/13 9/14/13 2/5/13
f 6/10/9 5/15/7 3/8/6
f 7/12/11 6/10/9 1/9/8
f 10/16/14 7/12/11 4/11/10
f 8/13/12 11/17/4 4/4/4
f 8/18/15 2/19/16 12/20/17
f 9/21/18 2/22/18 12/23/19
f 9/24/20 6/25/21 5/26/22
f 6/25/21 9/24/20 7/27/23
f 4/11/10 11/28/24 10/16/14
f 7/27/23 13/29/25 10/30/23
f 8/13/26 11/17/26 14/31/26
f 12/20/17 9/32/17 8/18/15
f 7/27/23 9/24/20 13/29/25
f 15/33/27 10/16/14 11/28/24
f 10/30/23 13/29/25 16/34/3
f 14/31/28 17/35/28 11/17/28
f 18/36/29 14/37/30 8/18/31
f 9/32/17 13/38/32 8/18/15
f 11/28/24 17/39/33 15/33/27
f 10/30/23 16/34/3 15/40/34
f 13/38/32 16/41/35 18/36/29
f 14/31/36 17/35/36 19/42/36
f 8/18/15 13/38/32 18/36/29
f 14/37/30 18/36/29 20/43/37
f 21/44/38 15/33/27 17/39/33
f 15/40/34 16/34/3 20/45/1
f 18/36/29 16/41/35 20/43/37
f 19/42/39 22/46/39 17/35/39
f 20/43/37 19/47/40 14/37/30
f 17/39/33 22/48/41 21/44/38
f 15/40/34 20/45/1 21/49/1
f 19/42/1 23/50/1 22/46/23
f 19/47/40 20/43/37 24/51/42
f 25/52/43 21/44/38 22/48/41
f 21/49/1 20/45/1 24/53/1
f 23/50/1 26/54/23 22/46/23
f 24/51/42 23/55/44 19/47/40
f 22/48/41 26/56/45 25/52/43
f 21/49/1 24/53/1 25/57/46
f 23/50/47 26/54/47 27/58/47
f 23/59/44 24/60/42 28/61/48
f 29/62/49 25/52/43 26/56/45
f 25/57/46 24/53/1 28/63/39
f 27/58/50 30/64/50 26/54/50
f 28/61/51 27/65/52 23/59/48
f 26/56/45 30/66/53 29/62/49
f 25/57/46 28/63/39 29/67/1
f 27/58/54 30/64/54 31/68/54
f 27/65/52 28/61/51 32/69/55
f 33/70/56 29/71/49 30/72/53
f 29/67/1 28/63/39 32/73/12
f 31/68/57 34/74/57 30/64/57
f 32/69/55 31/75/58 27/65/52
f 30/72/53 34/76/59 33/70/56
f 29/67/1 32/73/12 33/77/1
f 31/68/1 35/78/1 34/74/50
f 31/75/58 32/69/55 36/79/60
f 37/80/61 33/70/56 34/76/59
f 33/77/1 32/73/12 36/81/23
f 35/78/1 38/82/50 34/74/50
f 36/79/60 35/83/62 31/75/58
f 34/76/59 38/84/63 37/80/61
f 33/77/1 36/81/23 37/85/39
f 35/78/1 39/86/50 38/82/50
f 35/83/62 36/79/60 40/87/64
f 41/88/65 37/80/61 38/84/63
f 37/85/39 36/81/23 40/89/23
f 39/86/50 42/90/50 38/82/50
f 40/87/64 39/91/64 35/83/62
f 38/84/63 42/92/66 41/88/65
f 37/85/39 40/89/23 41/93/39
f 39/86/67 42/90/67 43/94/67
f 43/95/68 39/91/69 40/87/69
f 44/96/70 41/88/65 42/92/66
f 41/93/39 40/89/23 45/97/71
f 43/94/71 46/98/71 42/90/71
f 40/87/69 45/99/72 43/95/68
f 42/92/66 46/100/73 44/96/70
f 41/93/39 45/97/71 44/101/74
f 43/94/21 47/102/21 46/98/21
f 47/103/75 43/95/68 45/99/72
f 48/104/76 44/96/70 46/100/73
f 44/101/74 45/97/71 49/105/77
f 47/102/21 50/106/78 46/98/21
f 45/99/72 49/107/79 47/103/75
f 46/100/73 50/108/80 48/104/76
f 44/101/74 49/105/77 48/109/81
f 50/110/80 47/103/75 49/107/79
f 49/107/79 48/111/76 50/110/80
f 51/112/82 52/113/83 53/114/84
f 52/113/83 51/112/82 54/115/85
f 52/116/83 55/117/86 53/118/84
f 53/118/84 56/119/87 51/120/82
f 54/115/85 51/112/82 57/121/88
f 54/122/85 58/123/89 52/116/83
f 55/117/86 52/116/83 58/123/89
f 56/119/87 53/118/84 55/117/86
f 59/124/90 51/120/82 56/119/87
f 57/121/88 51/112/82 60/125/91
f 57/126/88 61/127/92 54/122/85
f 58/123/89 54/122/85 61/127/92
f 58/128/89 56/129/87 55/130/86
f 51/120/82 59/124/90 60/131/91
f 56/129/87 62/132/93 59/133/90
f 57/121/88 60/125/91 63/134/94
f 61/127/92 57/126/88 62/135/93
f 56/129/87 58/128/89 61/136/92
f 64/137/95 60/131/91 59/124/90
f 56/129/87 61/136/92 62/132/93
f 59/133/90 62/132/93 65/138/96
f 63/134/94 60/125/91 66/139/97
f 63/140/94 62/141/93 57/142/88
f 60/131/91 64/137/95 66/143/97
f 59/133/90 65/138/96 64/144/95
f 62/141/93 63/140/94 65/145/96
f 63/134/94 66/139/97 67/146/98
f 64/137/95 68/147/99 66/143/97
f 64/144/95 65/138/96 69/148/100
f 63/140/94 69/149/100 65/145/96
f 67/146/98 66/139/97 68/150/99
f 69/149/100 63/140/94 67/151/98
f 68/147/99 64/137/95 70/152/101
f 64/144/95 69/148/100 70/153/101
f 67/146/98 68/150/99 71/154/102
f 67/151/98 72/155/103 69/149/100
f 70/156/101 73/157/104 68/158/99
f 70/153/101 69/148/100 72/159/103
f 71/154/102 68/150/99 73/160/104
f 72/155/103 67/151/98 71/161/102
f 73/157/104 70/156/101 74/162/105
f 70/153/101 72/159/103 74/163/105
f 71/154/102 73/160/104 75/164/106
f 71/161/102 76/165/107 72/155/103
f 74/162/105 77/166/108 73/157/104
f 74/163/105 72/159/103 76/167/107
f 75/164/106 73/160/104 77/168/108
f 76/165/107 71/161/102 75/169/106
f 77/166/108 74/162/105 78/170/109
f 74/163/105 76/167/107 78/171/109
f 75/164/106 77/168/108 79/172/110
f 75/169/106 80/173/111 76/165/107
f 78/170/109 81/174/112 77/166/108
f 78/171/109 76/167/107 80/175/111
f 79/172/110 77/168/108 81/176/112
f 80/173/111 75/169/106 79/177/110
f 81/174/112 78/170/109 82/178/113
f 78/171/109 80/175/111 82/179/113
f 79/172/110 81/176/112 83/180/114
f 79/177/110 84/181/115 80/173/111
f 82/178/113 85/182/116 81/174/112
f 82/179/113 80/175/111 84/183/115
f 83/180/114 81/176/112 85/184/116
f 84/181/115 79/177/110 83/185/114
f 85/182/116 82/178/113 86/186/117
f 82/179/113 84/183/115 86/187/117
f 83/180/114 85/184/116 87/188/118
f 83/189/114 88/190/119 84/191/115
f 86/186/117 89/192/120 85/182/116
f 86/187/117 84/183/115 88/193/119
f 87/188/118 85/184/116 89/194/120
f 88/190/119 83/189/114 87/195/118
f 89/192/120 86/186/117 90/196/121
f 86/187/117 88/193/119 90/197/121
f 87/188/118 89/194/120 91/198/122
f 91/199/122 88/190/119 87/195/118
f 92/200/123 89/192/120 90/196/121
f 90/197/121 88/193/119 93/201/124
f 91/198/122 89/194/120 94/202/125
f 88/190/119 91/199/122 93/203/124
f 89/192/120 92/200/123 94/204/125
f 90/197/121 93/201/124 92/205/123
f 91/198/122 94/202/125 95/206/126
f 95/207/126 93/203/124 91/199/122
f 96/208/127 94/209/125 92/210/123
f 92/205/123 93/201/124 97/211/128
f 95/206/126 94/202/125 98/212/129
f 93/203/124 95/207/126 97/213/128
f 94/209/125 96/208/127 98/214/129
f 92/205/123 97/211/128 96/215/127
f 95/206/126 98/212/129 99/216/130
f 100/217/131 97/213/128 95/207/126
f 101/218/132 98/214/129 96/208/127
f 96/215/127 97/211/128 101/219/132
f 98/214/129 101/218/132 99/220/130
f 95/206/126 99/216/130 100/221/131
f 97/213/128 100/217/131 102/222/133
f 101/219/132 97/211/128 102/223/133
f 102/222/133 99/220/130 101/218/132
f 99/220/130 102/222/133 100/217/131
