# Blender v2.82 (sub 7) OBJ File: ''
# www.blender.org
mtllib default.mtl
usemtl default
v -0.160013 0.027408 0.616523
v 0.116320 0.027408 0.616523
v -0.021847 0.029376 0.616523
v -0.298068 0.021506 0.616523
v -0.021847 0.029376 0.106595
v -0.149445 0.027559 0.106595
v -0.298068 0.021506 -0.403334
v 0.254374 0.021506 0.616523
v 0.107732 0.027531 0.106595
v -0.160013 0.027408 -0.403334
v -0.435898 0.011675 -0.403334
v -0.435898 0.011675 0.616523
v 0.116320 0.027408 -0.403334
v 0.107732 0.027531 -0.080654
v 0.254374 0.021506 -0.403334
v 0.392205 0.011675 0.616523
v -0.573393 -0.002078 -0.403334
v 0.392205 0.011675 -0.403334
v -0.573393 -0.002078 0.616523
v 0.529699 -0.002078 0.616523
v -0.710440 -0.019741 -0.403334
v 0.529699 -0.002078 -0.403334
v 0.666746 -0.019741 0.616523
v -0.710440 -0.019741 0.616523
v 0.666746 -0.019741 -0.403334
v -0.846928 -0.041300 -0.403334
v 0.803235 -0.041300 -0.403334
v -0.846928 -0.041300 0.616523
v 0.803235 -0.041300 0.616523
v -0.816350 -0.041300 -0.372756
v 0.772657 -0.041300 0.585945
v -0.816350 -0.041300 0.585945
v 0.772657 -0.041300 -0.372756
vt 0.975128 0.258284
vt 0.975128 0.359750
vt 0.974423 0.309017
vt 0.977243 0.207592
vt 0.376186 0.973351
vt 0.425693 0.786112
vt 0.425693 0.973351
vt 0.471412 0.786112
vt 0.475199 0.973351
vt 0.524666 0.598874
vt 0.524666 0.973351
vt 0.977243 0.410441
vt 0.379263 0.786112
vt 0.475199 0.598874
vt 0.574051 0.598874
vt 0.980765 0.156983
vt 0.775045 0.003745
vt 0.725579 0.378221
vt 0.725579 0.003745
vt 0.379263 0.717357
vt 0.574051 0.973351
vt 0.980765 0.461051
vt 0.775045 0.378221
vt 0.897567 0.586843
vt 0.895452 0.434686
vt 0.897567 0.383995
vt 0.623317 0.598874
vt 0.954963 0.843017
vt 0.951440 0.589559
vt 0.954963 0.538949
vt 0.985693 0.106497
vt 0.824432 0.003745
vt 0.623317 0.973350
vt 0.959891 0.893503
vt 0.824432 0.378221
vt 0.985693 0.511536
vt 0.672423 0.598874
vt 0.959891 0.488464
vt 0.873697 0.003745
vt 0.992022 0.561858
vt 0.672423 0.973351
vt 0.966220 0.438142
vt 0.966220 0.943824
vt 0.873697 0.378221
vt 0.992022 0.056176
vt 0.922803 0.003745
vt 0.721328 0.598874
vt 0.973944 0.388025
vt 0.922803 0.378221
vt 0.999747 0.006059
vt 0.721328 0.973350
vt 0.973944 0.993941
vt 0.971708 0.003745
vt 0.971708 0.378221
vt 0.999747 0.611975
vt 0.003654 0.611975
vt 0.014611 0.600747
vt 0.369080 0.611975
vt 0.003654 0.006059
vt 0.369080 0.006059
vt 0.358124 0.017287
vt 0.358124 0.600747
vt 0.014611 0.017287
vn 0.0000 0.0000 1.0000
vn 0.0142 0.9999 0.0000
vn -0.0143 0.9999 0.0000
vn -0.0142 0.9999 0.0000
vn -0.0427 0.9991 0.0000
vn -0.0522 0.9986 -0.0000
vn -0.0569 0.9984 0.0000
vn 0.0143 0.9999 0.0000
vn -0.0711 0.9975 0.0000
vn 0.0522 0.9986 0.0000
vn 0.0427 0.9991 0.0000
vn -0.0853 0.9964 -0.0000
vn -0.0901 0.9959 0.0000
vn 0.0616 0.9981 -0.0000
vn 0.0000 0.0000 -1.0000
vn -0.1090 0.9940 -0.0000
vn 0.0806 0.9967 0.0000
vn -0.1184 0.9930 0.0000
vn 0.0901 0.9959 -0.0000
vn -0.1372 0.9905 -0.0000
vn 0.1090 0.9940 -0.0000
vn -0.1466 0.9892 0.0000
vn 0.1184 0.9930 -0.0000
vn 0.1372 0.9905 0.0000
vn -0.1560 0.9878 0.0000
vn 0.1466 0.9892 -0.0000
vn 0.1560 0.9878 0.0000
vn 0.0000 -1.0000 -0.0000
f 1/1/1 2/2/1 3/3/1
f 2/2/1 1/1/1 4/4/1
f 2/5/2 5/6/2 3/7/2
f 6/8/3 1/9/4 3/7/4
f 1/9/5 7/10/6 4/11/7
f 2/2/1 4/4/1 8/12/1
f 5/6/2 2/5/2 9/13/8
f 6/8/3 3/7/4 5/6/4
f 1/9/4 6/8/3 10/14/3
f 7/10/6 1/9/5 10/14/5
f 11/15/9 4/11/7 7/10/6
f 8/12/1 4/4/1 12/16/1
f 8/17/10 13/18/11 2/19/11
f 9/13/8 2/5/2 14/20/8
f 4/11/9 11/15/12 12/21/13
f 8/12/1 12/16/1 16/22/1
f 13/18/11 8/17/10 15/23/14
f 7/24/15 13/25/15 15/26/15
f 17/27/16 12/21/13 11/15/12
f 11/28/15 15/29/15 18/30/15
f 16/22/1 12/16/1 19/31/1
f 16/32/17 15/23/14 8/17/10
f 12/21/13 17/27/16 19/33/18
f 11/28/15 18/30/15 17/34/15
f 15/23/14 16/32/17 18/35/19
f 16/22/1 19/31/1 20/36/1
f 21/37/20 19/33/18 17/27/16
f 17/34/15 18/30/15 22/38/15
f 20/39/21 18/35/19 16/32/17
f 20/36/1 19/31/1 23/40/1
f 19/33/18 21/37/20 24/41/22
f 17/34/15 25/42/15 21/43/15
f 18/35/19 20/39/21 22/44/23
f 17/34/15 22/38/15 25/42/15
f 23/40/1 19/31/1 24/45/1
f 23/46/24 22/44/23 20/39/21
f 26/47/25 24/41/22 21/37/20
f 21/43/15 25/42/15 27/48/15
f 22/44/23 23/46/24 25/49/26
f 23/40/1 24/45/1 28/50/1
f 24/41/22 26/47/25 28/51/25
f 21/43/15 27/48/15 26/52/15
f 25/49/26 29/53/27 27/54/27
f 29/53/27 25/49/26 23/46/24
f 23/40/1 28/50/1 29/55/1
f 26/56/28 30/57/28 28/58/28
f 30/57/28 26/56/28 27/59/28
f 29/60/28 31/61/28 27/59/28
f 28/58/28 32/62/28 29/60/28
f 32/62/28 28/58/28 30/57/28
f 30/57/28 27/59/28 33/63/28
f 29/60/28 32/62/28 31/61/28
f 33/63/28 27/59/28 31/61/28
